<svg width="19" height="19" viewBox="0 0 19 19" fill="none" xmlns="http://www.w3.org/2000/svg">
<path d="M9.5 19C6.96246 19 4.57681 18.0118 2.78246 16.2175C0.988186 14.4232 0 12.0375 0 9.5C0 6.96246 0.988186 4.57681 2.78246 2.78246C4.57681 0.988186 6.96246 0 9.5 0C12.0375 0 14.4232 0.988186 16.2175 2.78246C18.0118 4.57681 19 6.96246 19 9.5C19 12.0375 18.0118 14.4232 16.2175 16.2175C14.4232 18.0118 12.0375 19 9.5 19ZM9.5 1.11328C7.25982 1.11328 5.15375 1.98565 3.5697 3.5697C1.98565 5.15375 1.11328 7.25982 1.11328 9.5C1.11328 11.7402 1.98565 13.8462 3.5697 15.4303C5.15375 17.0144 7.25982 17.8867 9.5 17.8867C11.7402 17.8867 13.8462 17.0144 15.4303 15.4303C17.0144 13.8462 17.8867 11.7402 17.8867 9.5C17.8867 7.25982 17.0144 5.15375 15.4303 3.5697C13.8462 1.98565 11.7402 1.11328 9.5 1.11328Z" fill="black"/>
<path d="M8.94336 2.22803H10.0566V3.71359H8.94336V2.22803Z" fill="black"/>
<path d="M13.1963 5.01562L14.2466 3.96533L15.0337 4.75242L13.9834 5.80271L13.1963 5.01562Z" fill="black"/>
<path d="M15.2866 8.94336H16.7722V10.0566H15.2866V8.94336Z" fill="black"/>
<path d="M13.1953 13.9854L13.9824 13.1983L15.0327 14.2486L14.2456 15.0356L13.1953 13.9854Z" fill="black"/>
<path d="M8.94336 15.2866H10.0566V16.7722H8.94336V15.2866Z" fill="black"/>
<path d="M3.9624 14.2476L5.0127 13.1973L5.79979 13.9844L4.74949 15.0346L3.9624 14.2476Z" fill="black"/>
<path d="M2.22803 8.94336H3.71359V10.0566H2.22803V8.94336Z" fill="black"/>
<path d="M3.96338 4.75146L4.75047 3.96437L5.80076 5.01467L5.01367 5.80176L3.96338 4.75146Z" fill="black"/>
<path d="M13.4296 10.0565H8.94336V5.57031H10.0566V8.94326H13.4296V10.0565Z" fill="black"/>
</svg>
