<svg width="22" height="22" viewBox="0 0 22 22" fill="none" xmlns="http://www.w3.org/2000/svg">
<g clip-path="url(#clip0)">
<path d="M2.08092 17.6H2.19985L7.93767 16.3513C8.04943 16.3327 8.15299 16.2809 8.23493 16.2027L17.9564 6.48113C18.6666 5.7725 19.0628 4.80866 19.0565 3.8055C19.0578 2.79454 18.6628 1.82335 17.9564 1.1001C17.2479 0.389937 16.284 -0.00628677 15.2808 0.0001434C14.2712 -0.00879055 13.3028 0.400066 12.6052 1.12986L2.91331 10.8514C2.82784 10.9202 2.76553 11.0135 2.73492 11.1189L1.48633 16.8567C1.45224 17.0627 1.51848 17.2726 1.66472 17.4216C1.77449 17.5336 1.92409 17.5978 2.08092 17.6ZM15.2808 1.18933C16.7093 1.18921 17.8673 2.34716 17.8674 3.77562C17.8674 3.78558 17.8674 3.79554 17.8673 3.8055C17.877 4.48601 17.6085 5.14104 17.124 5.61897L13.4673 1.93249C13.9491 1.45376 14.6016 1.18631 15.2808 1.18933ZM12.6349 2.79471L16.2916 6.45142L7.81868 14.8946L4.16196 11.2676L12.6349 2.79471ZM3.6863 12.4568L6.6295 15.4L2.85385 16.2325L3.6863 12.4568Z" fill="black"/>
<path d="M20.9592 20.8105H1.04039C0.711998 20.8105 0.445801 21.0767 0.445801 21.4051C0.445801 21.7335 0.711998 21.9997 1.04039 21.9997H20.9592C21.2876 21.9997 21.5538 21.7335 21.5538 21.4051C21.5538 21.0767 21.2876 20.8105 20.9592 20.8105Z" fill="black"/>
</g>
<defs>
<clipPath id="clip0">
<rect width="22" height="22" fill="white"/>
</clipPath>
</defs>
</svg>
