<svg width="17" height="15" viewBox="0 0 17 15" fill="none" xmlns="http://www.w3.org/2000/svg">
<path d="M0.979385 3.48039L0.979412 3.48042L6.78561 9.89563V11.7066C6.78561 11.8833 6.93543 12.0173 7.10839 12.0173C7.28134 12.0173 7.43116 11.8833 7.43116 11.7066V10.0899H9.56884V12.3116L7.43116 13.2961V12.4091C7.43116 12.2324 7.28134 12.0984 7.10839 12.0984C6.93543 12.0984 6.78561 12.2324 6.78561 12.4091V13.7892C6.78561 13.899 6.84537 13.9984 6.93933 14.054L6.93937 14.054C6.99125 14.0847 7.0499 14.1 7.10842 14.1C7.1557 14.1 7.20336 14.09 7.24774 14.0696L7.20592 13.9788L7.24775 14.0696L10.031 12.7878C10.031 12.7878 10.031 12.7878 10.031 12.7878C10.141 12.7372 10.2144 12.6294 10.2144 12.5075V9.89568L16.0206 3.48048C16.0714 3.42438 16.1 3.35201 16.1 3.27628V1.21077V1.21074C16.1 1.03397 15.9502 0.9 15.7772 0.9H1.22277C1.04983 0.9 0.9 1.03397 0.9 1.21077V3.27622C0.9 3.35199 0.928693 3.42434 0.979385 3.48039ZM15.4544 2.96545H12.0537C11.8807 2.96545 11.7309 3.09946 11.7309 3.27622C11.7309 3.45299 11.8807 3.58699 12.0537 3.58699H15.0678L9.74471 9.46838H7.25529L1.9322 3.58696H11.3111C11.4841 3.58696 11.6339 3.45296 11.6339 3.2762C11.6339 3.09943 11.4841 2.96543 11.3111 2.96543H1.54555V1.52154H15.4544V2.96545Z" fill="black" stroke="black" stroke-width="0.2"/>
</svg>
