<svg id="Layer_1" data-name="Layer 1" xmlns="http://www.w3.org/2000/svg" width="32" height="32" viewBox="0 0 32 32"><title>heart 2</title><path d="M5,18.37a.79.79,0,0,1,.54-.22h0a.76.76,0,0,1,.55.24l.6.63a.74.74,0,0,1,.22.56.77.77,0,0,1-.24.55.79.79,0,0,1-.54.22.8.8,0,0,1-.57-.24l-.6-.63a.74.74,0,0,1-.22-.56A.76.76,0,0,1,5,18.37Z"/><path d="M1,10.61A8.72,8.72,0,0,1,15.32,5.25a.55.55,0,0,0,.74,0A8.72,8.72,0,0,1,28.27,17.64c-.16.18-3.9,3.88-11.11,11l0,0a2.09,2.09,0,0,1-1.5.61,2.12,2.12,0,0,1-1.5-.62L8.7,23.25a.75.75,0,0,1-.23-.55.83.83,0,0,1,.23-.56.79.79,0,0,1,.56-.23h0a.79.79,0,0,1,.56.23l5.41,5.43a.54.54,0,0,0,.78,0c3.51-3.46,10.84-10.71,11.08-11a7.14,7.14,0,0,0-10-10.15,2.15,2.15,0,0,1-2.8,0A7.18,7.18,0,0,0,8.46,4.8a7.15,7.15,0,0,0-4,12,.79.79,0,1,1-1.13,1.09A8.72,8.72,0,0,1,1,10.61Z"/></svg>