<svg width="25" height="34" viewBox="0 0 25 34" fill="none" xmlns="http://www.w3.org/2000/svg">
<path d="M1.20067 8.76247L1.29692 8.78886L1.20067 8.76247C0.70873 10.5566 0.823252 12.7114 1.5236 14.9921L3.31645 20.8305C3.52583 21.5124 4.23712 21.8952 4.9049 21.6772L6.14287 21.2729C6.20497 21.2526 6.28027 21.2899 6.3018 21.36L8.453 28.3654C8.7673 29.3889 9.83209 29.9627 10.8298 29.6368C11.826 29.3115 12.3752 28.2131 12.0613 27.1908L5.47168 5.73171C5.46997 5.72612 5.46826 5.72051 5.46654 5.71491C5.38224 5.43922 5.29379 5.14995 4.99466 5.00648C4.69239 4.8614 4.40982 4.98258 4.18383 5.0795C4.1794 5.0814 4.175 5.08329 4.17061 5.08517C2.73384 5.69712 1.68188 7.00759 1.20067 8.76247ZM19.1673 5.83104C20.1317 5.09365 21.3299 4.75798 22.5835 4.54676L21.3552 12.6684L21.3551 12.6684C21.3075 12.9837 21.5164 13.2839 21.8291 13.3342C22.1426 13.3846 22.4315 13.1632 22.4793 12.8473L24.1016 2.12062L24.1016 2.12056L24.1043 2.10301C24.1494 1.80675 24.1926 1.52277 23.998 1.26116C23.8042 1.0005 23.5159 0.96873 23.3187 0.946994L23.3099 0.946024L23.3096 0.945994C21.3784 0.738094 19.2376 1.24309 17.5793 2.29722C15.389 3.68957 13.9993 5.98761 13.554 8.93206L11.7119 21.1117C11.5866 21.9404 12.1388 22.7241 12.9499 22.8546L16.352 23.4018L16 25.729C15.9679 25.9414 15.9426 26.1236 15.9207 26.281C15.8934 26.4778 15.8711 26.6379 15.8484 26.761C15.8248 26.8892 15.8033 26.9598 15.7849 26.99C15.7707 27.013 15.7297 27.0517 15.6397 27.1138C15.5536 27.1732 15.4369 27.2449 15.2871 27.3369L15.2871 27.3369C15.2267 27.374 15.1613 27.4142 15.0915 27.4574C14.2951 27.9495 13.7573 28.7733 13.6146 29.7166C13.3502 31.4648 14.5139 33.1135 16.216 33.3873C17.918 33.661 19.5137 32.4549 19.7782 30.706L22.1456 15.0532C22.1933 14.7379 21.9844 14.4377 21.6717 14.3874C21.3582 14.337 21.0693 14.5584 21.0215 14.8743L19.8259 22.7795L15.2387 22.0417L17.1144 9.7534C17.1144 9.7534 17.1144 9.75339 17.1144 9.75339C17.4145 7.78962 18.1721 6.59195 19.1673 5.83104ZM15.6793 28.4565L15.6795 28.4564C15.7483 28.4137 15.8121 28.3745 15.8715 28.338C16.3115 28.0678 16.5754 27.8866 16.7414 27.6187C16.9062 27.3529 16.9684 27.0113 17.0469 26.4455L17.0475 26.4416C17.0687 26.2885 17.0932 26.1125 17.1241 25.9079L17.4758 23.5825L19.6517 23.9325L18.6543 30.5272C18.4851 31.6451 17.4681 32.4077 16.3923 32.2346C15.3146 32.0613 14.5696 31.014 14.7387 29.8955C14.8298 29.2933 15.1728 28.7694 15.6793 28.4565ZM15.9906 9.57274L15.9906 9.57276L14.115 21.8609L13.1261 21.7019C12.943 21.6724 12.8065 21.4847 12.8359 21.2906L14.678 9.11101C15.1378 6.07099 16.5925 4.2652 18.248 3.24448C19.8623 2.24911 21.6745 1.99635 22.9557 2.08564L22.7664 3.3374C21.4524 3.53797 19.9937 3.87782 18.7781 4.69752C17.2419 5.73339 16.3327 7.33389 15.9906 9.57274ZM5.7978 20.161L4.55983 20.5653C4.49703 20.5858 4.42246 20.5483 4.40143 20.4799L2.60859 14.6414C1.9715 12.5667 1.86646 10.6438 2.2957 9.07837L2.19926 9.05192L2.2957 9.07837C2.6638 7.73586 3.42262 6.74069 4.43559 6.24138L8.91146 20.8172L7.47206 21.2872L7.38673 21.0094C7.17717 20.3267 6.46566 19.9429 5.7978 20.161ZM10.9763 27.5413C11.1036 27.9559 10.8797 28.396 10.4846 28.525C10.091 28.6535 9.66486 28.4281 9.53792 28.0148L7.81381 22.4001L9.25321 21.9301L10.9763 27.5413Z" fill="black" stroke="black" stroke-width="0.2"/>
</svg>
