<svg width="52" height="52" viewBox="0 0 52 52" fill="none" xmlns="http://www.w3.org/2000/svg">
<mask id="path-1-inside-1" fill="white">
<path d="M17.0602 35.5955C19.2017 38.615 21.3398 41.3155 22.7568 43.0549C22.9631 43.308 23.1564 43.5428 23.3436 43.769H19.0675C18.5888 43.769 18.2008 44.1569 18.2008 44.6356C18.2008 45.1143 18.5888 45.5022 19.0675 45.5022H32.9341C33.4127 45.5022 33.8007 45.1143 33.8007 44.6356C33.8007 44.1569 33.4127 43.769 32.9341 43.769H28.658C28.8451 43.5428 29.0384 43.3079 29.2456 43.0549C30.6617 41.3215 32.799 38.615 34.9413 35.5955C37.067 32.6598 38.9802 29.5762 40.6665 26.3681C42.4363 22.8927 43.3342 20.0076 43.3342 17.7924C43.3401 13.1895 41.5136 8.77354 38.2581 5.51947C38.0406 5.294 37.7185 5.20341 37.4154 5.28252C37.1124 5.36164 36.8755 5.59808 36.796 5.90104C36.7165 6.204 36.8065 6.52626 37.0317 6.74401C39.962 9.67349 41.606 13.6488 41.6008 17.7923C41.6008 19.732 40.7671 22.3527 39.1222 25.5811C37.4739 28.7148 35.604 31.727 33.527 34.5945C31.4141 37.575 29.302 40.2451 27.9023 41.9611C27.437 42.5314 27.0183 43.0358 26.6612 43.4622C26.4946 43.6526 26.2539 43.7617 26.0009 43.7617C25.7479 43.7617 25.5072 43.6525 25.3405 43.4622C24.9834 43.0359 24.5649 42.5314 24.0994 41.9611C22.6998 40.2461 20.5877 37.5758 18.4747 34.5945C16.3977 31.727 14.5278 28.7148 12.8795 25.5811C11.2329 22.3527 10.4009 19.732 10.4009 17.7923C10.4004 11.5148 14.1546 5.84579 19.9343 3.39609C23.8179 1.76763 28.1928 1.76763 32.0764 3.39609C32.3615 3.51695 32.6895 3.47663 32.9368 3.29006C33.1841 3.10359 33.3131 2.79931 33.2752 2.49188C33.2373 2.18445 33.0384 1.92059 32.7532 1.79973C23.9276 -1.92275 13.7552 2.21228 10.03 11.0367C9.1266 13.1742 8.66327 15.4718 8.66763 17.7923C8.66763 20.0075 9.56555 22.8927 11.3353 26.3724C13.0214 29.579 14.9348 32.6612 17.0602 35.5955Z"/>
<path d="M26.0012 9.96899C26.4798 9.96899 26.8678 9.58102 26.8678 9.10235C26.8678 8.62369 26.4798 8.23572 26.0012 8.23572C21.8665 8.23562 18.3076 11.1564 17.5008 15.2116C16.6941 19.2668 18.8644 23.327 22.6843 24.9094C26.5042 26.4918 30.9099 25.1553 33.207 21.7175C35.5042 18.2797 35.0529 13.6979 32.1294 10.7742C31.9117 10.5489 31.5896 10.4585 31.2865 10.5378C30.9835 10.6172 30.7469 10.8538 30.6676 11.1568C30.5882 11.4598 30.6786 11.782 30.9039 11.9996C33.2429 14.3385 33.604 18.0038 31.7664 20.7542C29.9288 23.5045 26.4043 24.5737 23.3483 23.3081C20.2924 22.0424 18.5561 18.7942 19.2012 15.55C19.8463 12.3057 22.6935 9.96909 26.0012 9.96899Z"/>
<path d="M51.6742 47.7307L46.3442 38.1973C45.8623 37.3503 44.9605 36.8297 43.986 36.8358H37.8093C37.3306 36.8358 36.9426 37.2237 36.9426 37.7024C36.9426 38.1811 37.3306 38.569 37.8093 38.569H43.986C44.333 38.5623 44.6566 38.7432 44.8327 39.0422L50.161 48.5756C50.3062 48.8236 50.3031 49.1312 50.1532 49.3764C49.9762 49.6689 49.6561 49.8441 49.3143 49.8358H2.6875C2.34605 49.8439 2.02633 49.6686 1.84941 49.3764C1.6995 49.1312 1.69655 48.8236 1.84159 48.5756L7.16988 39.0422C7.34568 38.7433 7.66906 38.5624 8.01569 38.569H14.1924C14.6711 38.569 15.0591 38.1811 15.0591 37.7024C15.0591 37.2237 14.6711 36.8358 14.1924 36.8358H8.01579C7.04079 36.8294 6.1383 37.35 5.65588 38.1973L0.326674 47.7307C-0.117664 48.5156 -0.107406 49.4784 0.353588 50.2536C0.839261 51.0791 1.72987 51.5812 2.6875 51.5693H49.3143C50.2716 51.5808 51.1619 51.0789 51.6474 50.2536C52.1084 49.4783 52.1187 48.5156 51.6742 47.7307Z"/>
<path d="M42.4678 41.1691H39.0012C38.83 41.1694 38.6628 41.22 38.5202 41.3147L35.9202 43.0481C35.5219 43.3138 35.4145 43.852 35.6801 44.2502C35.9458 44.6484 36.4839 44.7559 36.8822 44.4903L39.2612 42.9025H42.4678C42.9465 42.9025 43.3345 42.5145 43.3345 42.0359C43.3345 41.557 42.9465 41.1691 42.4678 41.1691Z"/>
<path d="M37.2675 47.2358C37.2675 47.7144 37.6555 48.1024 38.1342 48.1024H45.0675C45.5462 48.1024 45.9342 47.7144 45.9342 47.2358C45.9342 46.7571 45.5462 46.3691 45.0675 46.3691H38.1342C37.6555 46.3691 37.2675 46.7571 37.2675 47.2358Z"/>
<path d="M15.6007 44.6357C15.9827 44.6362 16.32 44.3864 16.431 44.0207C16.542 43.6551 16.4005 43.2599 16.0826 43.048L13.4826 41.3146C13.3398 41.2197 13.1721 41.169 13.0006 41.1689H9.534C9.05533 41.1689 8.66736 41.557 8.66736 42.0356C8.66736 42.5143 9.05543 42.9022 9.534 42.9022H12.7406L15.1223 44.49C15.264 44.5846 15.4304 44.6353 15.6007 44.6357Z"/>
<path d="M6.93408 46.3691C6.45541 46.3691 6.06744 46.7571 6.06744 47.2358C6.06744 47.7144 6.45541 48.1024 6.93408 48.1024H13.8675C14.3461 48.1024 14.7341 47.7144 14.7341 47.2358C14.7341 46.7571 14.3461 46.3691 13.8675 46.3691H6.93408Z"/>
</mask>
<path d="M17.0602 35.5955C19.2017 38.615 21.3398 41.3155 22.7568 43.0549C22.9631 43.308 23.1564 43.5428 23.3436 43.769H19.0675C18.5888 43.769 18.2008 44.1569 18.2008 44.6356C18.2008 45.1143 18.5888 45.5022 19.0675 45.5022H32.9341C33.4127 45.5022 33.8007 45.1143 33.8007 44.6356C33.8007 44.1569 33.4127 43.769 32.9341 43.769H28.658C28.8451 43.5428 29.0384 43.3079 29.2456 43.0549C30.6617 41.3215 32.799 38.615 34.9413 35.5955C37.067 32.6598 38.9802 29.5762 40.6665 26.3681C42.4363 22.8927 43.3342 20.0076 43.3342 17.7924C43.3401 13.1895 41.5136 8.77354 38.2581 5.51947C38.0406 5.294 37.7185 5.20341 37.4154 5.28252C37.1124 5.36164 36.8755 5.59808 36.796 5.90104C36.7165 6.204 36.8065 6.52626 37.0317 6.74401C39.962 9.67349 41.606 13.6488 41.6008 17.7923C41.6008 19.732 40.7671 22.3527 39.1222 25.5811C37.4739 28.7148 35.604 31.727 33.527 34.5945C31.4141 37.575 29.302 40.2451 27.9023 41.9611C27.437 42.5314 27.0183 43.0358 26.6612 43.4622C26.4946 43.6526 26.2539 43.7617 26.0009 43.7617C25.7479 43.7617 25.5072 43.6525 25.3405 43.4622C24.9834 43.0359 24.5649 42.5314 24.0994 41.9611C22.6998 40.2461 20.5877 37.5758 18.4747 34.5945C16.3977 31.727 14.5278 28.7148 12.8795 25.5811C11.2329 22.3527 10.4009 19.732 10.4009 17.7923C10.4004 11.5148 14.1546 5.84579 19.9343 3.39609C23.8179 1.76763 28.1928 1.76763 32.0764 3.39609C32.3615 3.51695 32.6895 3.47663 32.9368 3.29006C33.1841 3.10359 33.3131 2.79931 33.2752 2.49188C33.2373 2.18445 33.0384 1.92059 32.7532 1.79973C23.9276 -1.92275 13.7552 2.21228 10.03 11.0367C9.1266 13.1742 8.66327 15.4718 8.66763 17.7923C8.66763 20.0075 9.56555 22.8927 11.3353 26.3724C13.0214 29.579 14.9348 32.6612 17.0602 35.5955Z" fill="black"/>
<path d="M26.0012 9.96899C26.4798 9.96899 26.8678 9.58102 26.8678 9.10235C26.8678 8.62369 26.4798 8.23572 26.0012 8.23572C21.8665 8.23562 18.3076 11.1564 17.5008 15.2116C16.6941 19.2668 18.8644 23.327 22.6843 24.9094C26.5042 26.4918 30.9099 25.1553 33.207 21.7175C35.5042 18.2797 35.0529 13.6979 32.1294 10.7742C31.9117 10.5489 31.5896 10.4585 31.2865 10.5378C30.9835 10.6172 30.7469 10.8538 30.6676 11.1568C30.5882 11.4598 30.6786 11.782 30.9039 11.9996C33.2429 14.3385 33.604 18.0038 31.7664 20.7542C29.9288 23.5045 26.4043 24.5737 23.3483 23.3081C20.2924 22.0424 18.5561 18.7942 19.2012 15.55C19.8463 12.3057 22.6935 9.96909 26.0012 9.96899Z" fill="black"/>
<path d="M51.6742 47.7307L46.3442 38.1973C45.8623 37.3503 44.9605 36.8297 43.986 36.8358H37.8093C37.3306 36.8358 36.9426 37.2237 36.9426 37.7024C36.9426 38.1811 37.3306 38.569 37.8093 38.569H43.986C44.333 38.5623 44.6566 38.7432 44.8327 39.0422L50.161 48.5756C50.3062 48.8236 50.3031 49.1312 50.1532 49.3764C49.9762 49.6689 49.6561 49.8441 49.3143 49.8358H2.6875C2.34605 49.8439 2.02633 49.6686 1.84941 49.3764C1.6995 49.1312 1.69655 48.8236 1.84159 48.5756L7.16988 39.0422C7.34568 38.7433 7.66906 38.5624 8.01569 38.569H14.1924C14.6711 38.569 15.0591 38.1811 15.0591 37.7024C15.0591 37.2237 14.6711 36.8358 14.1924 36.8358H8.01579C7.04079 36.8294 6.1383 37.35 5.65588 38.1973L0.326674 47.7307C-0.117664 48.5156 -0.107406 49.4784 0.353588 50.2536C0.839261 51.0791 1.72987 51.5812 2.6875 51.5693H49.3143C50.2716 51.5808 51.1619 51.0789 51.6474 50.2536C52.1084 49.4783 52.1187 48.5156 51.6742 47.7307Z" fill="black"/>
<path d="M42.4678 41.1691H39.0012C38.83 41.1694 38.6628 41.22 38.5202 41.3147L35.9202 43.0481C35.5219 43.3138 35.4145 43.852 35.6801 44.2502C35.9458 44.6484 36.4839 44.7559 36.8822 44.4903L39.2612 42.9025H42.4678C42.9465 42.9025 43.3345 42.5145 43.3345 42.0359C43.3345 41.557 42.9465 41.1691 42.4678 41.1691Z" fill="black"/>
<path d="M37.2675 47.2358C37.2675 47.7144 37.6555 48.1024 38.1342 48.1024H45.0675C45.5462 48.1024 45.9342 47.7144 45.9342 47.2358C45.9342 46.7571 45.5462 46.3691 45.0675 46.3691H38.1342C37.6555 46.3691 37.2675 46.7571 37.2675 47.2358Z" fill="black"/>
<path d="M15.6007 44.6357C15.9827 44.6362 16.32 44.3864 16.431 44.0207C16.542 43.6551 16.4005 43.2599 16.0826 43.048L13.4826 41.3146C13.3398 41.2197 13.1721 41.169 13.0006 41.1689H9.534C9.05533 41.1689 8.66736 41.557 8.66736 42.0356C8.66736 42.5143 9.05543 42.9022 9.534 42.9022H12.7406L15.1223 44.49C15.264 44.5846 15.4304 44.6353 15.6007 44.6357Z" fill="black"/>
<path d="M6.93408 46.3691C6.45541 46.3691 6.06744 46.7571 6.06744 47.2358C6.06744 47.7144 6.45541 48.1024 6.93408 48.1024H13.8675C14.3461 48.1024 14.7341 47.7144 14.7341 47.2358C14.7341 46.7571 14.3461 46.3691 13.8675 46.3691H6.93408Z" fill="black"/>
<path d="M17.0602 35.5955C19.2017 38.615 21.3398 41.3155 22.7568 43.0549C22.9631 43.308 23.1564 43.5428 23.3436 43.769H19.0675C18.5888 43.769 18.2008 44.1569 18.2008 44.6356C18.2008 45.1143 18.5888 45.5022 19.0675 45.5022H32.9341C33.4127 45.5022 33.8007 45.1143 33.8007 44.6356C33.8007 44.1569 33.4127 43.769 32.9341 43.769H28.658C28.8451 43.5428 29.0384 43.3079 29.2456 43.0549C30.6617 41.3215 32.799 38.615 34.9413 35.5955C37.067 32.6598 38.9802 29.5762 40.6665 26.3681C42.4363 22.8927 43.3342 20.0076 43.3342 17.7924C43.3401 13.1895 41.5136 8.77354 38.2581 5.51947C38.0406 5.294 37.7185 5.20341 37.4154 5.28252C37.1124 5.36164 36.8755 5.59808 36.796 5.90104C36.7165 6.204 36.8065 6.52626 37.0317 6.74401C39.962 9.67349 41.606 13.6488 41.6008 17.7923C41.6008 19.732 40.7671 22.3527 39.1222 25.5811C37.4739 28.7148 35.604 31.727 33.527 34.5945C31.4141 37.575 29.302 40.2451 27.9023 41.9611C27.437 42.5314 27.0183 43.0358 26.6612 43.4622C26.4946 43.6526 26.2539 43.7617 26.0009 43.7617C25.7479 43.7617 25.5072 43.6525 25.3405 43.4622C24.9834 43.0359 24.5649 42.5314 24.0994 41.9611C22.6998 40.2461 20.5877 37.5758 18.4747 34.5945C16.3977 31.727 14.5278 28.7148 12.8795 25.5811C11.2329 22.3527 10.4009 19.732 10.4009 17.7923C10.4004 11.5148 14.1546 5.84579 19.9343 3.39609C23.8179 1.76763 28.1928 1.76763 32.0764 3.39609C32.3615 3.51695 32.6895 3.47663 32.9368 3.29006C33.1841 3.10359 33.3131 2.79931 33.2752 2.49188C33.2373 2.18445 33.0384 1.92059 32.7532 1.79973C23.9276 -1.92275 13.7552 2.21228 10.03 11.0367C9.1266 13.1742 8.66327 15.4718 8.66763 17.7923C8.66763 20.0075 9.56555 22.8927 11.3353 26.3724C13.0214 29.579 14.9348 32.6612 17.0602 35.5955Z" stroke="black" stroke-width="0.4" mask="url(#path-1-inside-1)"/>
<path d="M26.0012 9.96899C26.4798 9.96899 26.8678 9.58102 26.8678 9.10235C26.8678 8.62369 26.4798 8.23572 26.0012 8.23572C21.8665 8.23562 18.3076 11.1564 17.5008 15.2116C16.6941 19.2668 18.8644 23.327 22.6843 24.9094C26.5042 26.4918 30.9099 25.1553 33.207 21.7175C35.5042 18.2797 35.0529 13.6979 32.1294 10.7742C31.9117 10.5489 31.5896 10.4585 31.2865 10.5378C30.9835 10.6172 30.7469 10.8538 30.6676 11.1568C30.5882 11.4598 30.6786 11.782 30.9039 11.9996C33.2429 14.3385 33.604 18.0038 31.7664 20.7542C29.9288 23.5045 26.4043 24.5737 23.3483 23.3081C20.2924 22.0424 18.5561 18.7942 19.2012 15.55C19.8463 12.3057 22.6935 9.96909 26.0012 9.96899Z" stroke="black" stroke-width="0.4" mask="url(#path-1-inside-1)"/>
<path d="M51.6742 47.7307L46.3442 38.1973C45.8623 37.3503 44.9605 36.8297 43.986 36.8358H37.8093C37.3306 36.8358 36.9426 37.2237 36.9426 37.7024C36.9426 38.1811 37.3306 38.569 37.8093 38.569H43.986C44.333 38.5623 44.6566 38.7432 44.8327 39.0422L50.161 48.5756C50.3062 48.8236 50.3031 49.1312 50.1532 49.3764C49.9762 49.6689 49.6561 49.8441 49.3143 49.8358H2.6875C2.34605 49.8439 2.02633 49.6686 1.84941 49.3764C1.6995 49.1312 1.69655 48.8236 1.84159 48.5756L7.16988 39.0422C7.34568 38.7433 7.66906 38.5624 8.01569 38.569H14.1924C14.6711 38.569 15.0591 38.1811 15.0591 37.7024C15.0591 37.2237 14.6711 36.8358 14.1924 36.8358H8.01579C7.04079 36.8294 6.1383 37.35 5.65588 38.1973L0.326674 47.7307C-0.117664 48.5156 -0.107406 49.4784 0.353588 50.2536C0.839261 51.0791 1.72987 51.5812 2.6875 51.5693H49.3143C50.2716 51.5808 51.1619 51.0789 51.6474 50.2536C52.1084 49.4783 52.1187 48.5156 51.6742 47.7307Z" stroke="black" stroke-width="0.4" mask="url(#path-1-inside-1)"/>
<path d="M42.4678 41.1691H39.0012C38.83 41.1694 38.6628 41.22 38.5202 41.3147L35.9202 43.0481C35.5219 43.3138 35.4145 43.852 35.6801 44.2502C35.9458 44.6484 36.4839 44.7559 36.8822 44.4903L39.2612 42.9025H42.4678C42.9465 42.9025 43.3345 42.5145 43.3345 42.0359C43.3345 41.557 42.9465 41.1691 42.4678 41.1691Z" stroke="black" stroke-width="0.4" mask="url(#path-1-inside-1)"/>
<path d="M37.2675 47.2358C37.2675 47.7144 37.6555 48.1024 38.1342 48.1024H45.0675C45.5462 48.1024 45.9342 47.7144 45.9342 47.2358C45.9342 46.7571 45.5462 46.3691 45.0675 46.3691H38.1342C37.6555 46.3691 37.2675 46.7571 37.2675 47.2358Z" stroke="black" stroke-width="0.4" mask="url(#path-1-inside-1)"/>
<path d="M15.6007 44.6357C15.9827 44.6362 16.32 44.3864 16.431 44.0207C16.542 43.6551 16.4005 43.2599 16.0826 43.048L13.4826 41.3146C13.3398 41.2197 13.1721 41.169 13.0006 41.1689H9.534C9.05533 41.1689 8.66736 41.557 8.66736 42.0356C8.66736 42.5143 9.05543 42.9022 9.534 42.9022H12.7406L15.1223 44.49C15.264 44.5846 15.4304 44.6353 15.6007 44.6357Z" stroke="black" stroke-width="0.4" mask="url(#path-1-inside-1)"/>
<path d="M6.93408 46.3691C6.45541 46.3691 6.06744 46.7571 6.06744 47.2358C6.06744 47.7144 6.45541 48.1024 6.93408 48.1024H13.8675C14.3461 48.1024 14.7341 47.7144 14.7341 47.2358C14.7341 46.7571 14.3461 46.3691 13.8675 46.3691H6.93408Z" stroke="black" stroke-width="0.4" mask="url(#path-1-inside-1)"/>
</svg>
