<svg width="22" height="22" viewBox="0 0 22 22" fill="none" xmlns="http://www.w3.org/2000/svg">
<path d="M21.8083 20.878L16.462 15.5317C17.8961 13.8829 18.7644 11.7317 18.7644 9.38049C18.7644 4.20488 14.5546 0 9.38391 0C4.2083 0 0.00341797 4.20976 0.00341797 9.38049C0.00341797 14.5512 4.21317 18.761 9.38391 18.761C11.7351 18.761 13.8863 17.8927 15.5351 16.4585L20.8815 21.8049C21.0083 21.9317 21.179 22 21.3449 22C21.5107 22 21.6815 21.9366 21.8083 21.8049C22.062 21.5512 22.062 21.1317 21.8083 20.878ZM1.31561 9.38049C1.31561 4.93171 4.93513 1.31707 9.37903 1.31707C13.8278 1.31707 17.4424 4.93659 17.4424 9.38049C17.4424 13.8244 13.8278 17.4488 9.37903 17.4488C4.93513 17.4488 1.31561 13.8293 1.31561 9.38049Z" fill="white"/>
</svg>
