<svg width="47" height="47" viewBox="0 0 47 47" fill="none" xmlns="http://www.w3.org/2000/svg">
<g clip-path="url(#clip0)">
<path d="M39.95 25.0664H0.783333C0.350741 25.0664 0 25.4171 0 25.8497C0 26.2823 0.350741 26.6331 0.783333 26.6331H9.4V31.3331C9.4 31.7657 9.75074 32.1164 10.1833 32.1164C10.6159 32.1164 10.9667 31.7657 10.9667 31.3331V27.5338L24.5652 38.9782C24.8559 39.2203 25.2774 39.2203 25.5681 38.9782L39.1667 27.5338V45.4331H10.9667V42.2997C10.9667 41.8671 10.6159 41.5164 10.1833 41.5164C9.75074 41.5164 9.4 41.8671 9.4 42.2997V46.2164C9.4 46.649 9.75074 46.9997 10.1833 46.9997H39.95C40.3826 46.9997 40.7333 46.649 40.7333 46.2164V25.8497C40.7333 25.4171 40.3826 25.0664 39.95 25.0664ZM25.0667 37.3569L12.3299 26.6331H37.8035L25.0667 37.3569Z" fill="black"/>
<path d="M46.2165 0H13.3165C12.8839 0 12.5332 0.350741 12.5332 0.783333V22.7167C12.5332 23.1493 12.8839 23.5 13.3165 23.5C13.7491 23.5 14.0999 23.1493 14.0999 22.7167V1.56667H25.0665V10.1833C25.0665 10.6159 25.4173 10.9667 25.8499 10.9667H33.6832C34.1158 10.9667 34.4665 10.6159 34.4665 10.1833V1.56667H45.4332V32.9H43.0832C42.6506 32.9 42.2999 33.2507 42.2999 33.6833C42.2999 34.1159 42.6506 34.4667 43.0832 34.4667H46.2165C46.6491 34.4667 46.9999 34.1159 46.9999 33.6833V0.783333C46.9999 0.350741 46.6491 0 46.2165 0ZM32.8999 9.4H26.6332V1.56667H32.8999V9.4Z" fill="black"/>
<path d="M7.0501 28.9834H3.13343C2.70084 28.9834 2.3501 29.3341 2.3501 29.7667C2.3501 30.1993 2.70084 30.5501 3.13343 30.5501H7.0501C7.48269 30.5501 7.83343 30.1993 7.83343 29.7667C7.83343 29.3341 7.48269 28.9834 7.0501 28.9834Z" fill="black"/>
<path d="M4.7002 34.4669C4.7002 34.8995 5.05094 35.2503 5.48353 35.2503H11.7502C12.1828 35.2503 12.5335 34.8995 12.5335 34.4669C12.5335 34.0343 12.1828 33.6836 11.7502 33.6836H5.48353C5.05094 33.6836 4.7002 34.0343 4.7002 34.4669Z" fill="black"/>
<path d="M14.8834 39.1671C14.8834 38.7345 14.5327 38.3838 14.1001 38.3838H3.13343C2.70084 38.3838 2.3501 38.7345 2.3501 39.1671C2.3501 39.5997 2.70084 39.9505 3.13343 39.9505H14.1001C14.5327 39.9505 14.8834 39.5997 14.8834 39.1671Z" fill="black"/>
<path d="M7.04984 41.5166H4.69984C4.26724 41.5166 3.9165 41.8673 3.9165 42.2999C3.9165 42.7325 4.26724 43.0833 4.69984 43.0833H7.04984C7.48243 43.0833 7.83317 42.7325 7.83317 42.2999C7.83317 41.8673 7.48243 41.5166 7.04984 41.5166Z" fill="black"/>
<path d="M17.2335 16.4505H25.0669C25.4995 16.4505 25.8502 16.0997 25.8502 15.6671C25.8502 15.2345 25.4995 14.8838 25.0669 14.8838H17.2335C16.8009 14.8838 16.4502 15.2345 16.4502 15.6671C16.4502 16.0997 16.8009 16.4505 17.2335 16.4505Z" fill="black"/>
<path d="M17.2335 19.5833H22.7169C23.1495 19.5833 23.5002 19.2325 23.5002 18.7999C23.5002 18.3673 23.1495 18.0166 22.7169 18.0166H17.2335C16.8009 18.0166 16.4502 18.3673 16.4502 18.7999C16.4502 19.2325 16.8009 19.5833 17.2335 19.5833Z" fill="black"/>
<path d="M42.2998 16.4505C42.7324 16.4505 43.0831 16.0997 43.0831 15.6671C43.0831 15.2345 42.7324 14.8838 42.2998 14.8838H34.4664C34.0338 14.8838 33.6831 15.2345 33.6831 15.6671V18.8005C33.6831 19.233 34.0338 19.5838 34.4664 19.5838H42.2998C42.7324 19.5838 43.0831 19.233 43.0831 18.8005C43.0831 18.3679 42.7324 18.0171 42.2998 18.0171H35.2498V16.4505H42.2998Z" fill="black"/>
<path d="M42.3002 21.1504H37.6002C37.1676 21.1504 36.8169 21.5011 36.8169 21.9337C36.8169 22.3663 37.1676 22.7171 37.6002 22.7171H42.3002C42.7328 22.7171 43.0836 22.3663 43.0836 21.9337C43.0836 21.5011 42.7328 21.1504 42.3002 21.1504Z" fill="black"/>
</g>
<defs>
<clipPath id="clip0">
<rect width="47" height="47" fill="white"/>
</clipPath>
</defs>
</svg>
