<svg width="31" height="23" viewBox="0 0 31 23" fill="none" xmlns="http://www.w3.org/2000/svg">
<path d="M-1.90735e-06 21.3016V1.69861C-1.90735e-06 1.33566 0.139709 1.0056 0.366739 0.75627C0.370174 0.752202 0.374033 0.748344 0.377609 0.744276C0.633886 0.469204 0.99803 0.295898 1.40271 0.295898H29.5973C30.0015 0.295898 30.3652 0.468783 30.6214 0.743224C30.6253 0.747713 30.6296 0.751991 30.6335 0.75648C30.8604 1.00581 31 1.3358 31 1.69861V21.3016C31 21.6646 30.8602 21.9948 30.6331 22.2441C30.63 22.2478 30.6265 22.2513 30.6233 22.2549C30.367 22.5305 30.0025 22.7043 29.5973 22.7043H1.40271C0.99803 22.7043 0.633886 22.531 0.377609 22.2559C0.374033 22.2518 0.370174 22.248 0.366739 22.2439C0.139709 21.9946 -1.90735e-06 21.6645 -1.90735e-06 21.3016ZM24.1239 15.5721C24.4032 15.3038 24.8473 15.3129 25.1155 15.5923L29.5973 20.2598V2.74034L21.1863 11.5001L23.4584 13.8664C23.7266 14.1457 23.7176 14.5898 23.4382 14.858C23.3023 14.9886 23.1273 15.0535 22.9526 15.0535C22.7683 15.0535 22.5843 14.9813 22.4465 14.8379L20.214 12.5128L16.9774 15.8836C16.5855 16.2918 16.0608 16.5165 15.5 16.5165C14.9392 16.5165 14.4145 16.2917 14.0226 15.8836L10.786 12.5128L2.34709 21.3016H28.6529L24.1038 16.5637C23.8355 16.2844 23.8445 15.8404 24.1239 15.5721ZM15.0344 14.912C15.1593 15.0421 15.3247 15.1138 15.5 15.1138C15.6753 15.1138 15.8406 15.0421 15.9656 14.912L28.6529 1.69861H2.34716L15.0344 14.912ZM9.81367 11.5001L1.40271 2.74034L1.40257 20.26L9.81367 11.5001Z" fill="black"/>
</svg>
