<svg width="20" height="25" viewBox="0 0 20 25" fill="none" xmlns="http://www.w3.org/2000/svg">
<path d="M9.07875 23.6407L9.07879 23.6408C9.29306 23.9289 9.63738 24.1 10 24.1C10.3626 24.1 10.7069 23.9289 10.9214 23.6406L10.9214 23.6405L17.3785 14.9454C18.5045 13.4292 19.1 11.6358 19.1 9.75977C19.1 4.87187 15.0153 0.9 10 0.9C4.98474 0.9 0.9 4.87187 0.9 9.75977C0.9 11.6358 1.49547 13.4292 2.62146 14.9454L9.07875 23.6407ZM16.6569 14.4314L10.2 23.1263C10.1527 23.1898 10.0805 23.2262 10 23.2262C9.91954 23.2262 9.84727 23.1898 9.80022 23.1265L3.34307 14.4314C2.32839 13.0651 1.79231 11.4499 1.79231 9.75977C1.79231 5.35894 5.4718 1.77383 10 1.77383C14.5282 1.77383 18.2077 5.35894 18.2077 9.75977C18.2077 11.4499 17.6716 13.0651 16.6569 14.4314ZM10 3.9C6.64474 3.9 3.9 6.40406 3.9 9.5C3.9 12.5959 6.64474 15.1 10 15.1C13.3553 15.1 16.1 12.5959 16.1 9.5C16.1 6.40406 13.3553 3.9 10 3.9ZM10 14.2125C7.15201 14.2125 4.85 12.0904 4.85 9.5C4.85 6.90963 7.15201 4.7875 10 4.7875C12.848 4.7875 15.15 6.90963 15.15 9.5C15.15 12.0904 12.848 14.2125 10 14.2125Z" fill="black" stroke="black" stroke-width="0.2"/>
</svg>
