<svg width="25" height="29" viewBox="0 0 25 29" fill="none" xmlns="http://www.w3.org/2000/svg">
<path d="M12.4939 0C6.08598 0 0.869629 5.21635 0.869629 11.6243C0.869629 12.3539 0.936505 13.0895 1.07634 13.8069C1.08242 13.8495 1.10674 13.9771 1.15537 14.196C1.33168 14.9803 1.59311 15.7524 1.93357 16.4881C3.18598 19.4367 5.94007 23.966 11.9833 28.8176C12.1352 28.9392 12.3176 29 12.5 29C12.6824 29 12.8648 28.9392 13.0168 28.8176C19.0539 23.966 21.8141 19.4367 23.0665 16.4881C23.4069 15.7524 23.6684 14.9864 23.8447 14.196C23.8933 13.9771 23.9176 13.8495 23.9237 13.8069C24.0575 13.0895 24.1304 12.3539 24.1304 11.6243C24.1183 5.21635 18.9019 0 12.4939 0ZM22.2944 13.5212C22.2944 13.5333 22.2883 13.5455 22.2883 13.5577C22.2822 13.588 22.264 13.6792 22.2336 13.8191C22.2336 13.8252 22.2336 13.8252 22.2336 13.8312C22.0816 14.5122 21.8566 15.1748 21.5587 15.8132C21.5526 15.8193 21.5526 15.8314 21.5466 15.8375C20.4097 18.5308 17.917 22.6407 12.4939 27.1214C7.07089 22.6407 4.57822 18.5308 3.44133 15.8375C3.43525 15.8314 3.43525 15.8193 3.42917 15.8132C3.13734 15.1809 2.9124 14.5122 2.75432 13.8312C2.75432 13.8252 2.75432 13.8252 2.75432 13.8191C2.71785 13.6792 2.70569 13.588 2.69961 13.5577C2.69961 13.5455 2.69353 13.5333 2.69353 13.5151C2.57193 12.8889 2.51114 12.2566 2.51114 11.6182C2.51114 6.11614 6.99185 1.63543 12.4939 1.63543C17.996 1.63543 22.4768 6.11614 22.4768 11.6182C22.4768 12.2627 22.416 12.901 22.2944 13.5212Z" fill="black"/>
<path d="M12.494 4.37109C8.4267 4.37109 5.11328 7.68451 5.11328 11.7518C5.11328 15.8191 8.4267 19.1325 12.494 19.1325C16.5613 19.1325 19.8747 15.8191 19.8747 11.7518C19.8747 7.68451 16.5613 4.37109 12.494 4.37109ZM12.494 17.491C9.32649 17.491 6.75479 14.9132 6.75479 11.7518C6.75479 8.59038 9.33257 6.0126 12.494 6.0126C15.6554 6.0126 18.2332 8.59038 18.2332 11.7518C18.2332 14.9132 15.6615 17.491 12.494 17.491Z" fill="black"/>
</svg>
