<svg width="20" height="32" viewBox="0 0 20 32" fill="none" xmlns="http://www.w3.org/2000/svg">
<path d="M10 0.00122243C7.39351 -0.0401886 4.87723 0.971987 3.00272 2.81588C1.1282 4.65977 0.0483881 7.18494 0 9.83786V21.7184C0.0898103 24.3569 1.1827 26.8568 3.04825 28.691C4.9138 30.5253 7.40623 31.5505 10 31.5505C12.5938 31.5505 15.0862 30.5253 16.9518 28.691C18.8173 26.8568 19.9102 24.3569 20 21.7184V9.83786C19.9516 7.18494 18.8718 4.65977 16.9973 2.81588C15.1228 0.971987 12.6065 -0.0401886 10 0.00122243ZM18.8 9.83786V9.99255C16.1923 11.3343 13.3214 12.0615 10.4 12.1199V8.83118C10.8133 8.74875 11.1862 8.52412 11.4561 8.19495C11.7259 7.86579 11.8763 7.45213 11.882 7.02345V4.55819C11.8763 4.12939 11.726 3.71565 11.4562 3.38632C11.1863 3.05698 10.8134 2.83211 10.4 2.74947V1.18906C12.6241 1.25468 14.7379 2.19 16.3022 3.80063C17.8665 5.41126 18.7611 7.57339 18.8 9.83786ZM10 3.49355C10.2821 3.48892 10.5545 3.5984 10.7574 3.79802C10.9602 3.99764 11.077 4.27103 11.082 4.55819V7.02451C11.0735 7.31067 10.9558 7.58217 10.7539 7.78151C10.552 7.98085 10.2818 8.09232 10.0005 8.09232C9.71922 8.09232 9.44902 7.98085 9.24713 7.78151C9.04524 7.58217 8.92756 7.31067 8.91901 7.02451V4.55925C8.92374 4.27209 9.04024 3.99858 9.24292 3.79877C9.4456 3.59896 9.71788 3.48919 10 3.49355ZM9.60001 1.19012V2.74947C9.18694 2.83228 8.81439 3.05709 8.54477 3.38619C8.27514 3.7153 8.12481 4.12872 8.11899 4.5572V7.02451C8.12481 7.45299 8.27514 7.86641 8.54477 8.19551C8.81439 8.52462 9.18694 8.74942 9.60001 8.83224V12.1209C6.67863 12.0625 3.80767 11.3354 1.20001 9.99361V9.83886C1.23894 7.57439 2.13345 5.41226 3.69775 3.80163C5.26206 2.19099 7.37587 1.25574 9.60001 1.19012ZM10 30.3763C7.70623 30.4125 5.49189 29.5217 3.84235 27.8989C2.1928 26.2762 1.24262 24.054 1.20001 21.7194V10.8761C3.94713 12.215 6.95418 12.91 10 12.91C13.0458 12.91 16.0529 12.215 18.8 10.8761V21.7184C18.7576 24.0532 17.8076 26.2757 16.158 27.8986C14.5084 29.5216 12.2939 30.4125 10 30.3763Z" fill="white"/>
</svg>
