<svg width="22" height="22" viewBox="0 0 22 22" fill="none" xmlns="http://www.w3.org/2000/svg">
<g clip-path="url(#clip0)">
<mask id="path-1-outside-1" maskUnits="userSpaceOnUse" x="-1" y="1" width="24" height="22" fill="black">
<rect fill="white" x="-1" y="1" width="24" height="22"/>
<path d="M21.9999 4.72224C21.9999 4.71983 21.9996 4.71742 21.9995 4.71498C21.9993 4.70539 21.9987 4.69594 21.9976 4.68657C21.9972 4.68314 21.9965 4.6797 21.996 4.67626C21.9947 4.66762 21.9931 4.65912 21.9912 4.65078C21.9904 4.64747 21.9895 4.64421 21.9886 4.6409C21.9861 4.63183 21.9833 4.62294 21.98 4.61417C21.9794 4.61249 21.979 4.61078 21.9784 4.60914L21.1042 2.37125C21.0161 2.14575 20.8027 2 20.5605 2H18.9688C18.7953 2 18.6546 2.14064 18.6546 2.31414C18.6546 2.48765 18.7953 2.62829 18.9688 2.62829H20.5301L21.2258 4.4093H14.6484L14.2363 2.62829H16.6655C16.839 2.62829 16.9796 2.48765 16.9796 2.31414C16.9796 2.14064 16.839 2 16.6655 2H13.8412H10.6758H3.9564C3.71423 2 3.50085 2.14575 3.41272 2.37134L2.53852 4.60914C2.53788 4.61082 2.53753 4.61254 2.53689 4.61417C2.53362 4.62289 2.53079 4.63179 2.52829 4.6409C2.52739 4.64421 2.52653 4.64747 2.52576 4.65078C2.52378 4.65916 2.52219 4.66767 2.5209 4.67626C2.52039 4.6797 2.51974 4.68314 2.51931 4.68657C2.51824 4.69594 2.51764 4.70539 2.51738 4.71498C2.51734 4.71738 2.51704 4.71979 2.51699 4.72224C2.51699 4.72262 2.51695 4.72301 2.51695 4.7234V9.33866C2.51695 9.51217 2.65759 9.65281 2.83109 9.65281C3.0046 9.65281 3.14524 9.51217 3.14524 9.33866V5.03758H9.80418V9.81261C9.80418 9.99935 9.91418 10.1695 10.0845 10.2461C10.1468 10.2742 10.2132 10.2879 10.2792 10.2879C10.3933 10.2879 10.5062 10.2469 10.5947 10.1684L12.2585 8.69443L13.9223 10.1684C14.0619 10.2923 14.2623 10.3227 14.4325 10.2461C14.6028 10.1695 14.7128 9.99935 14.7128 9.81261V5.03758H21.3717V19.128C21.3717 19.3534 21.1883 19.5368 20.9628 19.5368H15.2028C15.2028 19.5333 15.2023 19.5297 15.2023 19.5261C15.2019 19.498 15.2009 19.4698 15.1985 19.4419C15.7394 19.5853 16.3172 19.3073 16.534 18.7758C16.648 18.4962 16.6463 18.189 16.5292 17.9107C16.5182 17.8845 16.506 17.859 16.4932 17.834C16.4908 17.8294 16.4886 17.8248 16.4862 17.8202C16.4736 17.7963 16.4602 17.773 16.4461 17.7503C16.4433 17.7458 16.4405 17.7415 16.4377 17.7371C16.4227 17.7138 16.4072 17.6909 16.3907 17.6689C16.3904 17.6684 16.39 17.6681 16.3897 17.6677C16.3733 17.6459 16.356 17.6249 16.338 17.6044C16.3348 17.6007 16.3315 17.5969 16.3282 17.5932C16.3105 17.5734 16.2921 17.5543 16.273 17.5358C16.2692 17.5322 16.2655 17.5287 16.2617 17.5252C16.2417 17.5064 16.2212 17.4882 16.1999 17.471C16.1992 17.4704 16.1985 17.4698 16.1977 17.4693C16.1768 17.4524 16.155 17.4364 16.1328 17.421C16.1288 17.4182 16.1248 17.4154 16.1207 17.4126C16.0985 17.3977 16.0758 17.3836 16.0524 17.3701C16.0504 17.369 16.0487 17.3677 16.0467 17.3666C16.1795 17.2517 16.2843 17.1063 16.3525 16.939C16.4665 16.6594 16.4648 16.3521 16.3477 16.0738C16.2453 15.8303 16.0652 15.6345 15.8346 15.513C15.8016 15.4956 15.7676 15.4797 15.7327 15.4655L10.8434 13.4719L13.1193 12.7675C13.6607 12.5999 13.9657 12.0224 13.7991 11.4802C13.7369 11.2778 13.6136 11.1072 13.4544 10.9824C13.2174 10.7968 12.9007 10.7129 12.5866 10.7789C12.5851 10.7792 12.5836 10.7795 12.5821 10.7799C12.5647 10.7838 10.82 11.1761 8.99783 11.5314C8.917 11.5472 8.83824 11.5624 8.7606 11.5773C8.69847 11.5893 8.63719 11.601 8.57708 11.6125C8.55981 11.6158 8.54249 11.6191 8.52535 11.6223C8.41921 11.6425 8.31639 11.6618 8.21644 11.6803C8.17622 11.6878 8.13635 11.6952 8.09712 11.7024C5.80874 12.124 5.16588 12.1315 4.98748 12.1074C4.98679 12.1073 4.98619 12.1072 4.9855 12.1071C4.98279 12.1067 4.98013 12.1063 4.97764 12.1059C4.97583 12.1056 4.97416 12.1053 4.97248 12.1051C4.97128 12.1049 4.96999 12.1046 4.96883 12.1045C4.9577 12.1025 4.94902 12.1003 4.94232 12.0983L4.89084 12.0774L4.95499 11.92C5.01807 11.7654 5.01713 11.5954 4.95237 11.4414C4.93617 11.4029 4.91645 11.3666 4.89359 11.3327C4.82501 11.2312 4.72803 11.1521 4.61202 11.1048L2.92472 10.4168C2.77008 10.3537 2.60005 10.3547 2.4461 10.4195C2.2921 10.4842 2.1726 10.6051 2.10952 10.7597L0.0462952 15.8198C-0.0838998 16.1391 0.069971 16.5048 0.389271 16.635L2.07661 17.3231C2.15365 17.3545 2.23336 17.3693 2.31186 17.3693C2.55863 17.3693 2.79298 17.2223 2.89177 16.9801L2.90728 16.9421L3.29632 17.1007C3.29653 17.1007 3.29675 17.1009 3.297 17.101C3.66911 17.2527 4.01196 17.4691 4.3087 17.7378C4.36267 17.7866 4.41509 17.8372 4.46592 17.8894C4.51676 17.9416 4.56591 17.9955 4.61339 18.0509C4.63711 18.0787 4.66044 18.1068 4.68326 18.1353C5.11565 18.6745 5.6825 19.0974 6.32243 19.3584L6.76011 19.5368H3.55413C3.32871 19.5368 3.14528 19.3534 3.14528 19.128V18.3331C3.14528 18.1596 3.00465 18.0189 2.83114 18.0189C2.65763 18.0189 2.51699 18.1596 2.51699 18.3331V19.128C2.51699 19.6998 2.98222 20.1651 3.55413 20.1651H8.30101L12.3478 21.8152C12.4871 21.872 12.6313 21.8989 12.7732 21.8989C13.2192 21.8989 13.6427 21.6331 13.8213 21.1953C13.8945 21.0157 13.918 20.8281 13.8983 20.6476C14.1088 20.6778 14.327 20.6501 14.5248 20.5647C14.7259 20.4779 14.8925 20.3395 15.0109 20.165H20.9629C21.5348 20.165 22 19.6998 22 19.1279V4.72344C22 4.72301 21.9999 4.72267 21.9999 4.72224ZM10.9255 2.62829H13.5914L14.0035 4.4093H10.5134L10.9255 2.62829ZM9.86855 4.4093H3.29112L3.98682 2.62829H10.2807L9.86855 4.4093ZM14.0846 9.47277H14.0845L12.5737 8.13429C12.4838 8.05472 12.3712 8.01493 12.2585 8.01493C12.1459 8.01493 12.0332 8.05472 11.9433 8.13429L10.4325 9.47277V5.03758H14.0846V9.47277ZM2.31109 16.7401L0.629165 16.0544L2.6902 10.9997L4.37212 11.6856L2.31109 16.7401ZM14.8616 18.636L14.501 18.4889C14.5009 18.4888 14.5007 18.4888 14.5005 18.4887C14.5004 18.4887 14.5003 18.4886 14.5001 18.4885C14.5001 18.4885 14.5001 18.4885 14.5 18.4885L10.7451 16.9575C10.5845 16.892 10.4012 16.9691 10.3357 17.1298C10.2701 17.2904 10.3473 17.4738 10.508 17.5393L14.2629 19.0704C14.2786 19.0768 14.2938 19.0839 14.3084 19.0916C14.3125 19.0938 14.3164 19.0965 14.3204 19.0988C14.3307 19.1046 14.3411 19.1105 14.3508 19.117C14.3555 19.1201 14.3598 19.1237 14.3644 19.127C14.373 19.1332 14.3818 19.1393 14.39 19.146C14.3949 19.15 14.3994 19.1545 14.4041 19.1587C14.4115 19.1652 14.4189 19.1715 14.4258 19.1784C14.4306 19.1831 14.4348 19.1883 14.4394 19.1932C14.4457 19.2 14.4522 19.2066 14.4581 19.2138C14.4626 19.2192 14.4666 19.225 14.4709 19.2306C14.4762 19.2377 14.4818 19.2446 14.4868 19.2519C14.4909 19.258 14.4945 19.2645 14.4984 19.2707C14.5028 19.2779 14.5076 19.285 14.5117 19.2924C14.5154 19.2991 14.5184 19.3061 14.5218 19.313C14.5254 19.3203 14.5294 19.3275 14.5326 19.3351C14.5358 19.3423 14.5383 19.3498 14.5411 19.3571C14.5439 19.3645 14.547 19.3718 14.5495 19.3794C14.552 19.387 14.5539 19.3948 14.556 19.4025C14.5581 19.4101 14.5605 19.4176 14.5622 19.4253C14.564 19.433 14.5651 19.4409 14.5665 19.4488C14.5679 19.4566 14.5696 19.4643 14.5706 19.4722C14.5716 19.4801 14.572 19.4881 14.5727 19.4961C14.5733 19.5041 14.5743 19.512 14.5745 19.52C14.5748 19.5279 14.5744 19.5358 14.5743 19.5437C14.5742 19.5519 14.5743 19.56 14.5738 19.5683C14.5734 19.576 14.5722 19.5838 14.5713 19.5916C14.5704 19.6 14.5697 19.6083 14.5684 19.6167C14.5671 19.6243 14.5652 19.6319 14.5636 19.6396C14.5618 19.648 14.5603 19.6565 14.558 19.6649C14.556 19.6724 14.5534 19.6798 14.551 19.6871C14.5484 19.6956 14.5459 19.704 14.5428 19.7123C14.5401 19.718 14.5375 19.7238 14.535 19.7296C14.5345 19.7309 14.5342 19.7323 14.5337 19.7336C14.4846 19.8469 14.394 19.9369 14.2757 19.988C14.1455 20.0441 13.9965 20.0461 13.8667 19.9932L13.2014 19.7219C13.1983 19.7207 13.1952 19.7198 13.1921 19.7186C13.1889 19.7172 13.186 19.7156 13.1828 19.7143L10.1288 18.469C9.96802 18.4035 9.78476 18.4806 9.71927 18.6413C9.65375 18.802 9.73087 18.9853 9.89153 19.0509L12.9456 20.2961C12.9488 20.2975 12.9522 20.2984 12.9555 20.2996C12.9584 20.3009 12.9612 20.3025 12.9642 20.3037C13.2205 20.4083 13.3441 20.7018 13.2396 20.9581C13.135 21.2145 12.8416 21.3381 12.5852 21.2335L8.48186 19.5603C8.48169 19.5603 8.48152 19.5602 8.48135 19.5601L6.55979 18.7766C6.22154 18.6386 5.90744 18.4472 5.63016 18.2117C5.46378 18.0704 5.31069 17.9132 5.17353 17.7422C5.03839 17.5737 4.89015 17.4166 4.73065 17.2722C4.37973 16.9545 3.97432 16.6986 3.53436 16.5191C3.53432 16.5191 3.53428 16.5191 3.53423 16.5191L3.14468 16.3603L3.92057 14.4574L4.65378 12.6592L4.70788 12.6812C4.7588 12.702 4.83142 12.7315 5.02684 12.7389C5.27098 12.7499 5.67489 12.7244 6.39848 12.6222C6.89069 12.5527 7.49444 12.4521 8.19926 12.3224C8.21662 12.3193 8.23385 12.3161 8.25138 12.3129C8.28433 12.3068 8.31763 12.3006 8.35106 12.2944C8.37706 12.2896 8.40318 12.2847 8.42952 12.2797C8.45952 12.2741 8.48964 12.2685 8.51997 12.2628C8.55216 12.2567 8.58473 12.2506 8.61747 12.2443C8.64368 12.2393 8.66985 12.2344 8.69632 12.2294C8.73623 12.2218 8.77684 12.214 8.81758 12.2062C8.83854 12.2021 8.8593 12.1982 8.88044 12.1941C8.94283 12.1821 9.00604 12.1699 9.0704 12.1574C10.8863 11.8042 12.639 11.4111 12.7178 11.3934C12.7256 11.3917 12.7335 11.3908 12.7413 11.3896C12.9431 11.3598 13.1408 11.4765 13.1987 11.6648C13.219 11.7309 13.2214 11.7984 13.2086 11.862C13.1804 12.0017 13.0789 12.1223 12.9337 12.1672L9.81922 13.1312C9.69242 13.1705 9.60399 13.2851 9.59827 13.4177C9.59251 13.5502 9.67063 13.6721 9.79352 13.7222L15.4956 16.0473C15.6198 16.0979 15.7168 16.1939 15.7688 16.3175C15.8208 16.4411 15.8216 16.5776 15.7709 16.7017C15.7203 16.8259 15.6244 16.9229 15.5008 16.9749C15.439 17.0009 15.374 17.014 15.3089 17.0144C15.3079 17.0144 15.307 17.0143 15.306 17.0143C15.2907 17.0143 15.2755 17.0137 15.2602 17.0123C15.2557 17.0118 15.2512 17.0109 15.2467 17.0104C15.2351 17.009 15.2234 17.0076 15.2119 17.0054C15.2046 17.004 15.1973 17.0018 15.1901 17.0001C15.1814 16.998 15.1727 16.9963 15.1641 16.9937C15.1552 16.9911 15.1465 16.9876 15.1377 16.9845C15.1307 16.982 15.1237 16.98 15.1168 16.9772L11.3615 15.4459C11.2008 15.3804 11.0175 15.4575 10.952 15.6182C10.8865 15.7789 10.9636 15.9622 11.1243 16.0278L15.6771 17.8841C15.7081 17.8968 15.7375 17.9123 15.7648 17.9303C15.8469 17.9845 15.9113 18.0616 15.9502 18.1543C15.9957 18.2625 16.002 18.3805 15.9689 18.4915C15.9642 18.5073 15.9587 18.523 15.9524 18.5386C15.9458 18.5546 15.9386 18.5701 15.9306 18.585C15.9121 18.6199 15.8895 18.6513 15.8644 18.68C15.8487 18.6978 15.832 18.7143 15.8142 18.7295C15.8114 18.732 15.8088 18.7347 15.8059 18.737C15.6913 18.8308 15.538 18.8711 15.3883 18.8408C15.3579 18.8347 15.3277 18.826 15.2979 18.8139L14.8616 18.636Z"/>
</mask>
<path d="M21.9999 4.72224C21.9999 4.71983 21.9996 4.71742 21.9995 4.71498C21.9993 4.70539 21.9987 4.69594 21.9976 4.68657C21.9972 4.68314 21.9965 4.6797 21.996 4.67626C21.9947 4.66762 21.9931 4.65912 21.9912 4.65078C21.9904 4.64747 21.9895 4.64421 21.9886 4.6409C21.9861 4.63183 21.9833 4.62294 21.98 4.61417C21.9794 4.61249 21.979 4.61078 21.9784 4.60914L21.1042 2.37125C21.0161 2.14575 20.8027 2 20.5605 2H18.9688C18.7953 2 18.6546 2.14064 18.6546 2.31414C18.6546 2.48765 18.7953 2.62829 18.9688 2.62829H20.5301L21.2258 4.4093H14.6484L14.2363 2.62829H16.6655C16.839 2.62829 16.9796 2.48765 16.9796 2.31414C16.9796 2.14064 16.839 2 16.6655 2H13.8412H10.6758H3.9564C3.71423 2 3.50085 2.14575 3.41272 2.37134L2.53852 4.60914C2.53788 4.61082 2.53753 4.61254 2.53689 4.61417C2.53362 4.62289 2.53079 4.63179 2.52829 4.6409C2.52739 4.64421 2.52653 4.64747 2.52576 4.65078C2.52378 4.65916 2.52219 4.66767 2.5209 4.67626C2.52039 4.6797 2.51974 4.68314 2.51931 4.68657C2.51824 4.69594 2.51764 4.70539 2.51738 4.71498C2.51734 4.71738 2.51704 4.71979 2.51699 4.72224C2.51699 4.72262 2.51695 4.72301 2.51695 4.7234V9.33866C2.51695 9.51217 2.65759 9.65281 2.83109 9.65281C3.0046 9.65281 3.14524 9.51217 3.14524 9.33866V5.03758H9.80418V9.81261C9.80418 9.99935 9.91418 10.1695 10.0845 10.2461C10.1468 10.2742 10.2132 10.2879 10.2792 10.2879C10.3933 10.2879 10.5062 10.2469 10.5947 10.1684L12.2585 8.69443L13.9223 10.1684C14.0619 10.2923 14.2623 10.3227 14.4325 10.2461C14.6028 10.1695 14.7128 9.99935 14.7128 9.81261V5.03758H21.3717V19.128C21.3717 19.3534 21.1883 19.5368 20.9628 19.5368H15.2028C15.2028 19.5333 15.2023 19.5297 15.2023 19.5261C15.2019 19.498 15.2009 19.4698 15.1985 19.4419C15.7394 19.5853 16.3172 19.3073 16.534 18.7758C16.648 18.4962 16.6463 18.189 16.5292 17.9107C16.5182 17.8845 16.506 17.859 16.4932 17.834C16.4908 17.8294 16.4886 17.8248 16.4862 17.8202C16.4736 17.7963 16.4602 17.773 16.4461 17.7503C16.4433 17.7458 16.4405 17.7415 16.4377 17.7371C16.4227 17.7138 16.4072 17.6909 16.3907 17.6689C16.3904 17.6684 16.39 17.6681 16.3897 17.6677C16.3733 17.6459 16.356 17.6249 16.338 17.6044C16.3348 17.6007 16.3315 17.5969 16.3282 17.5932C16.3105 17.5734 16.2921 17.5543 16.273 17.5358C16.2692 17.5322 16.2655 17.5287 16.2617 17.5252C16.2417 17.5064 16.2212 17.4882 16.1999 17.471C16.1992 17.4704 16.1985 17.4698 16.1977 17.4693C16.1768 17.4524 16.155 17.4364 16.1328 17.421C16.1288 17.4182 16.1248 17.4154 16.1207 17.4126C16.0985 17.3977 16.0758 17.3836 16.0524 17.3701C16.0504 17.369 16.0487 17.3677 16.0467 17.3666C16.1795 17.2517 16.2843 17.1063 16.3525 16.939C16.4665 16.6594 16.4648 16.3521 16.3477 16.0738C16.2453 15.8303 16.0652 15.6345 15.8346 15.513C15.8016 15.4956 15.7676 15.4797 15.7327 15.4655L10.8434 13.4719L13.1193 12.7675C13.6607 12.5999 13.9657 12.0224 13.7991 11.4802C13.7369 11.2778 13.6136 11.1072 13.4544 10.9824C13.2174 10.7968 12.9007 10.7129 12.5866 10.7789C12.5851 10.7792 12.5836 10.7795 12.5821 10.7799C12.5647 10.7838 10.82 11.1761 8.99783 11.5314C8.917 11.5472 8.83824 11.5624 8.7606 11.5773C8.69847 11.5893 8.63719 11.601 8.57708 11.6125C8.55981 11.6158 8.54249 11.6191 8.52535 11.6223C8.41921 11.6425 8.31639 11.6618 8.21644 11.6803C8.17622 11.6878 8.13635 11.6952 8.09712 11.7024C5.80874 12.124 5.16588 12.1315 4.98748 12.1074C4.98679 12.1073 4.98619 12.1072 4.9855 12.1071C4.98279 12.1067 4.98013 12.1063 4.97764 12.1059C4.97583 12.1056 4.97416 12.1053 4.97248 12.1051C4.97128 12.1049 4.96999 12.1046 4.96883 12.1045C4.9577 12.1025 4.94902 12.1003 4.94232 12.0983L4.89084 12.0774L4.95499 11.92C5.01807 11.7654 5.01713 11.5954 4.95237 11.4414C4.93617 11.4029 4.91645 11.3666 4.89359 11.3327C4.82501 11.2312 4.72803 11.1521 4.61202 11.1048L2.92472 10.4168C2.77008 10.3537 2.60005 10.3547 2.4461 10.4195C2.2921 10.4842 2.1726 10.6051 2.10952 10.7597L0.0462952 15.8198C-0.0838998 16.1391 0.069971 16.5048 0.389271 16.635L2.07661 17.3231C2.15365 17.3545 2.23336 17.3693 2.31186 17.3693C2.55863 17.3693 2.79298 17.2223 2.89177 16.9801L2.90728 16.9421L3.29632 17.1007C3.29653 17.1007 3.29675 17.1009 3.297 17.101C3.66911 17.2527 4.01196 17.4691 4.3087 17.7378C4.36267 17.7866 4.41509 17.8372 4.46592 17.8894C4.51676 17.9416 4.56591 17.9955 4.61339 18.0509C4.63711 18.0787 4.66044 18.1068 4.68326 18.1353C5.11565 18.6745 5.6825 19.0974 6.32243 19.3584L6.76011 19.5368H3.55413C3.32871 19.5368 3.14528 19.3534 3.14528 19.128V18.3331C3.14528 18.1596 3.00465 18.0189 2.83114 18.0189C2.65763 18.0189 2.51699 18.1596 2.51699 18.3331V19.128C2.51699 19.6998 2.98222 20.1651 3.55413 20.1651H8.30101L12.3478 21.8152C12.4871 21.872 12.6313 21.8989 12.7732 21.8989C13.2192 21.8989 13.6427 21.6331 13.8213 21.1953C13.8945 21.0157 13.918 20.8281 13.8983 20.6476C14.1088 20.6778 14.327 20.6501 14.5248 20.5647C14.7259 20.4779 14.8925 20.3395 15.0109 20.165H20.9629C21.5348 20.165 22 19.6998 22 19.1279V4.72344C22 4.72301 21.9999 4.72267 21.9999 4.72224ZM10.9255 2.62829H13.5914L14.0035 4.4093H10.5134L10.9255 2.62829ZM9.86855 4.4093H3.29112L3.98682 2.62829H10.2807L9.86855 4.4093ZM14.0846 9.47277H14.0845L12.5737 8.13429C12.4838 8.05472 12.3712 8.01493 12.2585 8.01493C12.1459 8.01493 12.0332 8.05472 11.9433 8.13429L10.4325 9.47277V5.03758H14.0846V9.47277ZM2.31109 16.7401L0.629165 16.0544L2.6902 10.9997L4.37212 11.6856L2.31109 16.7401ZM14.8616 18.636L14.501 18.4889C14.5009 18.4888 14.5007 18.4888 14.5005 18.4887C14.5004 18.4887 14.5003 18.4886 14.5001 18.4885C14.5001 18.4885 14.5001 18.4885 14.5 18.4885L10.7451 16.9575C10.5845 16.892 10.4012 16.9691 10.3357 17.1298C10.2701 17.2904 10.3473 17.4738 10.508 17.5393L14.2629 19.0704C14.2786 19.0768 14.2938 19.0839 14.3084 19.0916C14.3125 19.0938 14.3164 19.0965 14.3204 19.0988C14.3307 19.1046 14.3411 19.1105 14.3508 19.117C14.3555 19.1201 14.3598 19.1237 14.3644 19.127C14.373 19.1332 14.3818 19.1393 14.39 19.146C14.3949 19.15 14.3994 19.1545 14.4041 19.1587C14.4115 19.1652 14.4189 19.1715 14.4258 19.1784C14.4306 19.1831 14.4348 19.1883 14.4394 19.1932C14.4457 19.2 14.4522 19.2066 14.4581 19.2138C14.4626 19.2192 14.4666 19.225 14.4709 19.2306C14.4762 19.2377 14.4818 19.2446 14.4868 19.2519C14.4909 19.258 14.4945 19.2645 14.4984 19.2707C14.5028 19.2779 14.5076 19.285 14.5117 19.2924C14.5154 19.2991 14.5184 19.3061 14.5218 19.313C14.5254 19.3203 14.5294 19.3275 14.5326 19.3351C14.5358 19.3423 14.5383 19.3498 14.5411 19.3571C14.5439 19.3645 14.547 19.3718 14.5495 19.3794C14.552 19.387 14.5539 19.3948 14.556 19.4025C14.5581 19.4101 14.5605 19.4176 14.5622 19.4253C14.564 19.433 14.5651 19.4409 14.5665 19.4488C14.5679 19.4566 14.5696 19.4643 14.5706 19.4722C14.5716 19.4801 14.572 19.4881 14.5727 19.4961C14.5733 19.5041 14.5743 19.512 14.5745 19.52C14.5748 19.5279 14.5744 19.5358 14.5743 19.5437C14.5742 19.5519 14.5743 19.56 14.5738 19.5683C14.5734 19.576 14.5722 19.5838 14.5713 19.5916C14.5704 19.6 14.5697 19.6083 14.5684 19.6167C14.5671 19.6243 14.5652 19.6319 14.5636 19.6396C14.5618 19.648 14.5603 19.6565 14.558 19.6649C14.556 19.6724 14.5534 19.6798 14.551 19.6871C14.5484 19.6956 14.5459 19.704 14.5428 19.7123C14.5401 19.718 14.5375 19.7238 14.535 19.7296C14.5345 19.7309 14.5342 19.7323 14.5337 19.7336C14.4846 19.8469 14.394 19.9369 14.2757 19.988C14.1455 20.0441 13.9965 20.0461 13.8667 19.9932L13.2014 19.7219C13.1983 19.7207 13.1952 19.7198 13.1921 19.7186C13.1889 19.7172 13.186 19.7156 13.1828 19.7143L10.1288 18.469C9.96802 18.4035 9.78476 18.4806 9.71927 18.6413C9.65375 18.802 9.73087 18.9853 9.89153 19.0509L12.9456 20.2961C12.9488 20.2975 12.9522 20.2984 12.9555 20.2996C12.9584 20.3009 12.9612 20.3025 12.9642 20.3037C13.2205 20.4083 13.3441 20.7018 13.2396 20.9581C13.135 21.2145 12.8416 21.3381 12.5852 21.2335L8.48186 19.5603C8.48169 19.5603 8.48152 19.5602 8.48135 19.5601L6.55979 18.7766C6.22154 18.6386 5.90744 18.4472 5.63016 18.2117C5.46378 18.0704 5.31069 17.9132 5.17353 17.7422C5.03839 17.5737 4.89015 17.4166 4.73065 17.2722C4.37973 16.9545 3.97432 16.6986 3.53436 16.5191C3.53432 16.5191 3.53428 16.5191 3.53423 16.5191L3.14468 16.3603L3.92057 14.4574L4.65378 12.6592L4.70788 12.6812C4.7588 12.702 4.83142 12.7315 5.02684 12.7389C5.27098 12.7499 5.67489 12.7244 6.39848 12.6222C6.89069 12.5527 7.49444 12.4521 8.19926 12.3224C8.21662 12.3193 8.23385 12.3161 8.25138 12.3129C8.28433 12.3068 8.31763 12.3006 8.35106 12.2944C8.37706 12.2896 8.40318 12.2847 8.42952 12.2797C8.45952 12.2741 8.48964 12.2685 8.51997 12.2628C8.55216 12.2567 8.58473 12.2506 8.61747 12.2443C8.64368 12.2393 8.66985 12.2344 8.69632 12.2294C8.73623 12.2218 8.77684 12.214 8.81758 12.2062C8.83854 12.2021 8.8593 12.1982 8.88044 12.1941C8.94283 12.1821 9.00604 12.1699 9.0704 12.1574C10.8863 11.8042 12.639 11.4111 12.7178 11.3934C12.7256 11.3917 12.7335 11.3908 12.7413 11.3896C12.9431 11.3598 13.1408 11.4765 13.1987 11.6648C13.219 11.7309 13.2214 11.7984 13.2086 11.862C13.1804 12.0017 13.0789 12.1223 12.9337 12.1672L9.81922 13.1312C9.69242 13.1705 9.60399 13.2851 9.59827 13.4177C9.59251 13.5502 9.67063 13.6721 9.79352 13.7222L15.4956 16.0473C15.6198 16.0979 15.7168 16.1939 15.7688 16.3175C15.8208 16.4411 15.8216 16.5776 15.7709 16.7017C15.7203 16.8259 15.6244 16.9229 15.5008 16.9749C15.439 17.0009 15.374 17.014 15.3089 17.0144C15.3079 17.0144 15.307 17.0143 15.306 17.0143C15.2907 17.0143 15.2755 17.0137 15.2602 17.0123C15.2557 17.0118 15.2512 17.0109 15.2467 17.0104C15.2351 17.009 15.2234 17.0076 15.2119 17.0054C15.2046 17.004 15.1973 17.0018 15.1901 17.0001C15.1814 16.998 15.1727 16.9963 15.1641 16.9937C15.1552 16.9911 15.1465 16.9876 15.1377 16.9845C15.1307 16.982 15.1237 16.98 15.1168 16.9772L11.3615 15.4459C11.2008 15.3804 11.0175 15.4575 10.952 15.6182C10.8865 15.7789 10.9636 15.9622 11.1243 16.0278L15.6771 17.8841C15.7081 17.8968 15.7375 17.9123 15.7648 17.9303C15.8469 17.9845 15.9113 18.0616 15.9502 18.1543C15.9957 18.2625 16.002 18.3805 15.9689 18.4915C15.9642 18.5073 15.9587 18.523 15.9524 18.5386C15.9458 18.5546 15.9386 18.5701 15.9306 18.585C15.9121 18.6199 15.8895 18.6513 15.8644 18.68C15.8487 18.6978 15.832 18.7143 15.8142 18.7295C15.8114 18.732 15.8088 18.7347 15.8059 18.737C15.6913 18.8308 15.538 18.8711 15.3883 18.8408C15.3579 18.8347 15.3277 18.826 15.2979 18.8139L14.8616 18.636Z" fill="black"/>
<path d="M21.9999 4.72224C21.9999 4.71983 21.9996 4.71742 21.9995 4.71498C21.9993 4.70539 21.9987 4.69594 21.9976 4.68657C21.9972 4.68314 21.9965 4.6797 21.996 4.67626C21.9947 4.66762 21.9931 4.65912 21.9912 4.65078C21.9904 4.64747 21.9895 4.64421 21.9886 4.6409C21.9861 4.63183 21.9833 4.62294 21.98 4.61417C21.9794 4.61249 21.979 4.61078 21.9784 4.60914L21.1042 2.37125C21.0161 2.14575 20.8027 2 20.5605 2H18.9688C18.7953 2 18.6546 2.14064 18.6546 2.31414C18.6546 2.48765 18.7953 2.62829 18.9688 2.62829H20.5301L21.2258 4.4093H14.6484L14.2363 2.62829H16.6655C16.839 2.62829 16.9796 2.48765 16.9796 2.31414C16.9796 2.14064 16.839 2 16.6655 2H13.8412H10.6758H3.9564C3.71423 2 3.50085 2.14575 3.41272 2.37134L2.53852 4.60914C2.53788 4.61082 2.53753 4.61254 2.53689 4.61417C2.53362 4.62289 2.53079 4.63179 2.52829 4.6409C2.52739 4.64421 2.52653 4.64747 2.52576 4.65078C2.52378 4.65916 2.52219 4.66767 2.5209 4.67626C2.52039 4.6797 2.51974 4.68314 2.51931 4.68657C2.51824 4.69594 2.51764 4.70539 2.51738 4.71498C2.51734 4.71738 2.51704 4.71979 2.51699 4.72224C2.51699 4.72262 2.51695 4.72301 2.51695 4.7234V9.33866C2.51695 9.51217 2.65759 9.65281 2.83109 9.65281C3.0046 9.65281 3.14524 9.51217 3.14524 9.33866V5.03758H9.80418V9.81261C9.80418 9.99935 9.91418 10.1695 10.0845 10.2461C10.1468 10.2742 10.2132 10.2879 10.2792 10.2879C10.3933 10.2879 10.5062 10.2469 10.5947 10.1684L12.2585 8.69443L13.9223 10.1684C14.0619 10.2923 14.2623 10.3227 14.4325 10.2461C14.6028 10.1695 14.7128 9.99935 14.7128 9.81261V5.03758H21.3717V19.128C21.3717 19.3534 21.1883 19.5368 20.9628 19.5368H15.2028C15.2028 19.5333 15.2023 19.5297 15.2023 19.5261C15.2019 19.498 15.2009 19.4698 15.1985 19.4419C15.7394 19.5853 16.3172 19.3073 16.534 18.7758C16.648 18.4962 16.6463 18.189 16.5292 17.9107C16.5182 17.8845 16.506 17.859 16.4932 17.834C16.4908 17.8294 16.4886 17.8248 16.4862 17.8202C16.4736 17.7963 16.4602 17.773 16.4461 17.7503C16.4433 17.7458 16.4405 17.7415 16.4377 17.7371C16.4227 17.7138 16.4072 17.6909 16.3907 17.6689C16.3904 17.6684 16.39 17.6681 16.3897 17.6677C16.3733 17.6459 16.356 17.6249 16.338 17.6044C16.3348 17.6007 16.3315 17.5969 16.3282 17.5932C16.3105 17.5734 16.2921 17.5543 16.273 17.5358C16.2692 17.5322 16.2655 17.5287 16.2617 17.5252C16.2417 17.5064 16.2212 17.4882 16.1999 17.471C16.1992 17.4704 16.1985 17.4698 16.1977 17.4693C16.1768 17.4524 16.155 17.4364 16.1328 17.421C16.1288 17.4182 16.1248 17.4154 16.1207 17.4126C16.0985 17.3977 16.0758 17.3836 16.0524 17.3701C16.0504 17.369 16.0487 17.3677 16.0467 17.3666C16.1795 17.2517 16.2843 17.1063 16.3525 16.939C16.4665 16.6594 16.4648 16.3521 16.3477 16.0738C16.2453 15.8303 16.0652 15.6345 15.8346 15.513C15.8016 15.4956 15.7676 15.4797 15.7327 15.4655L10.8434 13.4719L13.1193 12.7675C13.6607 12.5999 13.9657 12.0224 13.7991 11.4802C13.7369 11.2778 13.6136 11.1072 13.4544 10.9824C13.2174 10.7968 12.9007 10.7129 12.5866 10.7789C12.5851 10.7792 12.5836 10.7795 12.5821 10.7799C12.5647 10.7838 10.82 11.1761 8.99783 11.5314C8.917 11.5472 8.83824 11.5624 8.7606 11.5773C8.69847 11.5893 8.63719 11.601 8.57708 11.6125C8.55981 11.6158 8.54249 11.6191 8.52535 11.6223C8.41921 11.6425 8.31639 11.6618 8.21644 11.6803C8.17622 11.6878 8.13635 11.6952 8.09712 11.7024C5.80874 12.124 5.16588 12.1315 4.98748 12.1074C4.98679 12.1073 4.98619 12.1072 4.9855 12.1071C4.98279 12.1067 4.98013 12.1063 4.97764 12.1059C4.97583 12.1056 4.97416 12.1053 4.97248 12.1051C4.97128 12.1049 4.96999 12.1046 4.96883 12.1045C4.9577 12.1025 4.94902 12.1003 4.94232 12.0983L4.89084 12.0774L4.95499 11.92C5.01807 11.7654 5.01713 11.5954 4.95237 11.4414C4.93617 11.4029 4.91645 11.3666 4.89359 11.3327C4.82501 11.2312 4.72803 11.1521 4.61202 11.1048L2.92472 10.4168C2.77008 10.3537 2.60005 10.3547 2.4461 10.4195C2.2921 10.4842 2.1726 10.6051 2.10952 10.7597L0.0462952 15.8198C-0.0838998 16.1391 0.069971 16.5048 0.389271 16.635L2.07661 17.3231C2.15365 17.3545 2.23336 17.3693 2.31186 17.3693C2.55863 17.3693 2.79298 17.2223 2.89177 16.9801L2.90728 16.9421L3.29632 17.1007C3.29653 17.1007 3.29675 17.1009 3.297 17.101C3.66911 17.2527 4.01196 17.4691 4.3087 17.7378C4.36267 17.7866 4.41509 17.8372 4.46592 17.8894C4.51676 17.9416 4.56591 17.9955 4.61339 18.0509C4.63711 18.0787 4.66044 18.1068 4.68326 18.1353C5.11565 18.6745 5.6825 19.0974 6.32243 19.3584L6.76011 19.5368H3.55413C3.32871 19.5368 3.14528 19.3534 3.14528 19.128V18.3331C3.14528 18.1596 3.00465 18.0189 2.83114 18.0189C2.65763 18.0189 2.51699 18.1596 2.51699 18.3331V19.128C2.51699 19.6998 2.98222 20.1651 3.55413 20.1651H8.30101L12.3478 21.8152C12.4871 21.872 12.6313 21.8989 12.7732 21.8989C13.2192 21.8989 13.6427 21.6331 13.8213 21.1953C13.8945 21.0157 13.918 20.8281 13.8983 20.6476C14.1088 20.6778 14.327 20.6501 14.5248 20.5647C14.7259 20.4779 14.8925 20.3395 15.0109 20.165H20.9629C21.5348 20.165 22 19.6998 22 19.1279V4.72344C22 4.72301 21.9999 4.72267 21.9999 4.72224ZM10.9255 2.62829H13.5914L14.0035 4.4093H10.5134L10.9255 2.62829ZM9.86855 4.4093H3.29112L3.98682 2.62829H10.2807L9.86855 4.4093ZM14.0846 9.47277H14.0845L12.5737 8.13429C12.4838 8.05472 12.3712 8.01493 12.2585 8.01493C12.1459 8.01493 12.0332 8.05472 11.9433 8.13429L10.4325 9.47277V5.03758H14.0846V9.47277ZM2.31109 16.7401L0.629165 16.0544L2.6902 10.9997L4.37212 11.6856L2.31109 16.7401ZM14.8616 18.636L14.501 18.4889C14.5009 18.4888 14.5007 18.4888 14.5005 18.4887C14.5004 18.4887 14.5003 18.4886 14.5001 18.4885C14.5001 18.4885 14.5001 18.4885 14.5 18.4885L10.7451 16.9575C10.5845 16.892 10.4012 16.9691 10.3357 17.1298C10.2701 17.2904 10.3473 17.4738 10.508 17.5393L14.2629 19.0704C14.2786 19.0768 14.2938 19.0839 14.3084 19.0916C14.3125 19.0938 14.3164 19.0965 14.3204 19.0988C14.3307 19.1046 14.3411 19.1105 14.3508 19.117C14.3555 19.1201 14.3598 19.1237 14.3644 19.127C14.373 19.1332 14.3818 19.1393 14.39 19.146C14.3949 19.15 14.3994 19.1545 14.4041 19.1587C14.4115 19.1652 14.4189 19.1715 14.4258 19.1784C14.4306 19.1831 14.4348 19.1883 14.4394 19.1932C14.4457 19.2 14.4522 19.2066 14.4581 19.2138C14.4626 19.2192 14.4666 19.225 14.4709 19.2306C14.4762 19.2377 14.4818 19.2446 14.4868 19.2519C14.4909 19.258 14.4945 19.2645 14.4984 19.2707C14.5028 19.2779 14.5076 19.285 14.5117 19.2924C14.5154 19.2991 14.5184 19.3061 14.5218 19.313C14.5254 19.3203 14.5294 19.3275 14.5326 19.3351C14.5358 19.3423 14.5383 19.3498 14.5411 19.3571C14.5439 19.3645 14.547 19.3718 14.5495 19.3794C14.552 19.387 14.5539 19.3948 14.556 19.4025C14.5581 19.4101 14.5605 19.4176 14.5622 19.4253C14.564 19.433 14.5651 19.4409 14.5665 19.4488C14.5679 19.4566 14.5696 19.4643 14.5706 19.4722C14.5716 19.4801 14.572 19.4881 14.5727 19.4961C14.5733 19.5041 14.5743 19.512 14.5745 19.52C14.5748 19.5279 14.5744 19.5358 14.5743 19.5437C14.5742 19.5519 14.5743 19.56 14.5738 19.5683C14.5734 19.576 14.5722 19.5838 14.5713 19.5916C14.5704 19.6 14.5697 19.6083 14.5684 19.6167C14.5671 19.6243 14.5652 19.6319 14.5636 19.6396C14.5618 19.648 14.5603 19.6565 14.558 19.6649C14.556 19.6724 14.5534 19.6798 14.551 19.6871C14.5484 19.6956 14.5459 19.704 14.5428 19.7123C14.5401 19.718 14.5375 19.7238 14.535 19.7296C14.5345 19.7309 14.5342 19.7323 14.5337 19.7336C14.4846 19.8469 14.394 19.9369 14.2757 19.988C14.1455 20.0441 13.9965 20.0461 13.8667 19.9932L13.2014 19.7219C13.1983 19.7207 13.1952 19.7198 13.1921 19.7186C13.1889 19.7172 13.186 19.7156 13.1828 19.7143L10.1288 18.469C9.96802 18.4035 9.78476 18.4806 9.71927 18.6413C9.65375 18.802 9.73087 18.9853 9.89153 19.0509L12.9456 20.2961C12.9488 20.2975 12.9522 20.2984 12.9555 20.2996C12.9584 20.3009 12.9612 20.3025 12.9642 20.3037C13.2205 20.4083 13.3441 20.7018 13.2396 20.9581C13.135 21.2145 12.8416 21.3381 12.5852 21.2335L8.48186 19.5603C8.48169 19.5603 8.48152 19.5602 8.48135 19.5601L6.55979 18.7766C6.22154 18.6386 5.90744 18.4472 5.63016 18.2117C5.46378 18.0704 5.31069 17.9132 5.17353 17.7422C5.03839 17.5737 4.89015 17.4166 4.73065 17.2722C4.37973 16.9545 3.97432 16.6986 3.53436 16.5191C3.53432 16.5191 3.53428 16.5191 3.53423 16.5191L3.14468 16.3603L3.92057 14.4574L4.65378 12.6592L4.70788 12.6812C4.7588 12.702 4.83142 12.7315 5.02684 12.7389C5.27098 12.7499 5.67489 12.7244 6.39848 12.6222C6.89069 12.5527 7.49444 12.4521 8.19926 12.3224C8.21662 12.3193 8.23385 12.3161 8.25138 12.3129C8.28433 12.3068 8.31763 12.3006 8.35106 12.2944C8.37706 12.2896 8.40318 12.2847 8.42952 12.2797C8.45952 12.2741 8.48964 12.2685 8.51997 12.2628C8.55216 12.2567 8.58473 12.2506 8.61747 12.2443C8.64368 12.2393 8.66985 12.2344 8.69632 12.2294C8.73623 12.2218 8.77684 12.214 8.81758 12.2062C8.83854 12.2021 8.8593 12.1982 8.88044 12.1941C8.94283 12.1821 9.00604 12.1699 9.0704 12.1574C10.8863 11.8042 12.639 11.4111 12.7178 11.3934C12.7256 11.3917 12.7335 11.3908 12.7413 11.3896C12.9431 11.3598 13.1408 11.4765 13.1987 11.6648C13.219 11.7309 13.2214 11.7984 13.2086 11.862C13.1804 12.0017 13.0789 12.1223 12.9337 12.1672L9.81922 13.1312C9.69242 13.1705 9.60399 13.2851 9.59827 13.4177C9.59251 13.5502 9.67063 13.6721 9.79352 13.7222L15.4956 16.0473C15.6198 16.0979 15.7168 16.1939 15.7688 16.3175C15.8208 16.4411 15.8216 16.5776 15.7709 16.7017C15.7203 16.8259 15.6244 16.9229 15.5008 16.9749C15.439 17.0009 15.374 17.014 15.3089 17.0144C15.3079 17.0144 15.307 17.0143 15.306 17.0143C15.2907 17.0143 15.2755 17.0137 15.2602 17.0123C15.2557 17.0118 15.2512 17.0109 15.2467 17.0104C15.2351 17.009 15.2234 17.0076 15.2119 17.0054C15.2046 17.004 15.1973 17.0018 15.1901 17.0001C15.1814 16.998 15.1727 16.9963 15.1641 16.9937C15.1552 16.9911 15.1465 16.9876 15.1377 16.9845C15.1307 16.982 15.1237 16.98 15.1168 16.9772L11.3615 15.4459C11.2008 15.3804 11.0175 15.4575 10.952 15.6182C10.8865 15.7789 10.9636 15.9622 11.1243 16.0278L15.6771 17.8841C15.7081 17.8968 15.7375 17.9123 15.7648 17.9303C15.8469 17.9845 15.9113 18.0616 15.9502 18.1543C15.9957 18.2625 16.002 18.3805 15.9689 18.4915C15.9642 18.5073 15.9587 18.523 15.9524 18.5386C15.9458 18.5546 15.9386 18.5701 15.9306 18.585C15.9121 18.6199 15.8895 18.6513 15.8644 18.68C15.8487 18.6978 15.832 18.7143 15.8142 18.7295C15.8114 18.732 15.8088 18.7347 15.8059 18.737C15.6913 18.8308 15.538 18.8711 15.3883 18.8408C15.3579 18.8347 15.3277 18.826 15.2979 18.8139L14.8616 18.636Z" stroke="black" stroke-width="0.4" mask="url(#path-1-outside-1)"/>
</g>
<defs>
<clipPath id="clip0">
<rect width="22" height="22" fill="white"/>
</clipPath>
</defs>
</svg>
