<svg width="24" height="24" viewBox="0 0 24 24" fill="none" xmlns="http://www.w3.org/2000/svg">
<path d="M22.8836 19.0368L22.8836 19.0368C23.1717 19.3251 23.1718 19.7939 22.8836 20.0821L21.9877 20.978C21.8435 21.1222 21.654 21.1943 21.465 21.1943C21.4212 21.1943 21.3777 21.1901 21.3352 21.1824L20.4824 22.0351C19.8669 22.6507 19.0482 23.0216 18.1774 23.0796C17.9742 23.0932 17.7697 23.1 17.5645 23.1C15.6362 23.1 13.6248 22.5005 11.5764 21.32C11.3743 21.2036 11.3049 20.9454 11.4213 20.7433C11.5378 20.5413 11.796 20.4718 11.9981 20.5883M22.8836 19.0368L11.9481 20.675M22.8836 19.0368L17.7315 13.8848L17.7315 13.8848M22.8836 19.0368L17.7315 13.8848M11.9981 20.5883L11.9481 20.675M11.9981 20.5883C11.9981 20.5883 11.9981 20.5883 11.9981 20.5883L11.9481 20.675M11.9981 20.5883C14.1263 21.8148 16.1857 22.3666 18.121 22.237L18.1211 22.237C18.7881 22.1926 19.4145 21.9088 19.8852 21.4381L20.6437 20.6796M11.9481 20.675C14.0891 21.9088 16.1681 22.468 18.1277 22.3368C18.8188 22.2908 19.468 21.9967 19.9559 21.5088L20.7144 20.7503L20.6437 20.6796M20.6437 20.6796L18.2339 18.2698C18.069 18.1049 18.069 17.8375 18.2339 17.6726L18.2339 17.6726C18.3989 17.5077 18.6662 17.5077 18.8311 17.6726L21.465 20.3065L22.2118 19.5595L17.2088 14.5565L16.462 15.3034L17.7685 16.61C17.9334 16.7749 17.9334 17.0422 17.7685 17.2072C17.6035 17.3721 17.3362 17.372 17.1713 17.2072L17.1712 17.2072L16.0888 16.1246L15.2591 16.9542C14.9759 17.2374 14.5983 17.3883 14.214 17.3883C14.0296 17.3883 13.8438 17.3536 13.6661 17.2823L13.7033 17.1895L13.6661 17.2823C12.1117 16.6585 10.6646 15.7031 9.48074 14.5192C8.29681 13.3353 7.34149 11.8883 6.71771 10.3339C6.49759 9.78545 6.62661 9.1601 7.04578 8.74088L7.04579 8.74088L7.87544 7.91126L3.32051 3.35633M20.6437 20.6796L3.32051 3.35633M3.32051 3.35633L2.56206 4.11479C2.56206 4.11479 2.56205 4.11479 2.56205 4.11479C2.09134 4.58555 1.80753 5.21197 1.76311 5.87887L1.76311 5.87892C1.53549 9.27344 3.35233 12.946 7.20315 16.7969C8.38987 17.9836 9.58554 18.9943 10.7567 19.8016C10.9487 19.934 10.9971 20.197 10.8647 20.389C10.7827 20.5079 10.6506 20.5716 10.5167 20.5716C10.4341 20.5716 10.3505 20.5474 10.2774 20.497C10.2774 20.497 10.2774 20.497 10.2773 20.497L10.3341 20.4147L3.32051 3.35633ZM17.7315 13.8848C17.4433 13.5967 16.9745 13.5966 16.6862 13.8848L16.6862 13.8848M17.7315 13.8848L16.6862 13.8848M16.6862 13.8848L15.7903 14.7807L15.7903 14.7808M16.6862 13.8848L15.7903 14.7808M15.7903 14.7808C15.6508 14.9202 15.5738 15.1061 15.5738 15.3034C15.5738 15.3478 15.578 15.3912 15.5857 15.4333L14.662 16.357C14.4818 16.5372 14.2145 16.5923 13.9807 16.4985C12.5315 15.9169 11.1818 15.0259 10.078 13.9221C8.97416 12.8182 8.08312 11.4685 7.50153 10.0193C7.40776 9.78563 7.46283 9.51817 7.64302 9.33798L8.56671 8.41429C8.60884 8.42197 8.65226 8.42622 8.69668 8.42622C8.89394 8.42622 9.07987 8.34922 9.21933 8.20971C9.21933 8.20971 9.21934 8.2097 9.21934 8.2097L10.1153 7.31381L10.1153 7.31381M15.7903 14.7808L10.1153 7.31381M10.1153 7.31381C10.4035 7.02554 10.4035 6.55673 10.1153 6.2685L7.11386 3.26709C6.94895 3.10218 6.68158 3.10218 6.51667 3.26709C6.35176 3.432 6.35176 3.69937 6.51667 3.86428L9.44359 6.7912L8.69668 7.53811L3.69358 2.53506L4.44049 1.78818L5.45358 2.80124C5.61849 2.96614 5.88586 2.96614 6.05077 2.80123C6.21568 2.63633 6.21568 2.36895 6.05077 2.20404L4.96323 1.1165C4.82373 0.977002 4.63776 0.9 4.44049 0.9C4.24321 0.9 4.05729 0.977006 3.91779 1.1165C3.91779 1.1165 3.91779 1.1165 3.91779 1.1165L3.02185 2.0124L3.02184 2.01241M10.1153 7.31381L3.02184 2.01241M3.02184 2.01241C2.84438 2.18992 2.77705 2.43542 2.81771 2.66471M3.02184 2.01241L2.81771 2.66471M2.81771 2.66471L1.96486 3.51764C1.96486 3.51764 1.96486 3.51764 1.96486 3.51764C1.34935 4.13316 0.978478 4.95179 0.920446 5.82257L2.81771 2.66471Z" fill="black" stroke="black" stroke-width="0.2"/>
</svg>
