<svg width="31" height="31" viewBox="0 0 31 31" fill="none" xmlns="http://www.w3.org/2000/svg">
<path d="M14.1659 23.1066C14.0867 23.1858 14.0327 23.2867 14.0108 23.3965C13.9889 23.5064 14.0001 23.6203 14.043 23.7238C14.0858 23.8273 14.1584 23.9157 14.2515 23.978C14.3447 24.0402 14.4542 24.0734 14.5662 24.0734C14.6782 24.0734 14.7877 24.0402 14.8809 23.978C14.974 23.9157 15.0466 23.8273 15.0894 23.7238C15.1323 23.6203 15.1435 23.5064 15.1216 23.3965C15.0997 23.2867 15.0457 23.1858 14.9665 23.1066C14.8603 23.0005 14.7163 22.9409 14.5662 22.9409C14.4161 22.9409 14.2721 23.0005 14.1659 23.1066Z" fill="black"/>
<path d="M28.6879 22.1233L24.3883 18.4672C24.3684 18.4502 24.3473 18.4346 24.3253 18.4204C23.7828 18.0718 23.1371 17.9199 22.4961 17.9903C21.855 18.0606 21.2576 18.3489 20.8037 18.8069L18.4592 21.1514C18.38 21.2304 18.2792 21.2842 18.1695 21.306C18.0598 21.3278 17.946 21.3166 17.8427 21.2739C15.1952 20.1788 13.0207 18.5309 11.3791 16.3747C10.1276 14.731 9.67599 13.425 9.61724 13.241C9.60948 13.201 9.59786 13.1619 9.58256 13.1242C9.53987 13.0207 9.52879 12.907 9.55071 12.7972C9.57264 12.6875 9.62658 12.5867 9.70572 12.5076L12.0495 10.1632C12.5078 9.70926 12.7963 9.11168 12.8666 8.47047C12.937 7.82926 12.7849 7.18334 12.436 6.64083C12.4303 6.63234 12.4246 6.62314 12.4183 6.61464L9.31286 2.29665C9.08381 1.94157 8.7782 1.64225 8.41842 1.42064C8.05864 1.19903 7.65383 1.06076 7.23366 1.01596C6.81349 0.971159 6.38862 1.02097 5.9902 1.16173C5.59179 1.3025 5.22993 1.53065 4.93116 1.82946L2.78562 3.9743C0.786601 5.97686 0.459566 8.98033 1.83708 12.6676C3.01921 15.8226 5.38561 19.2763 8.50023 22.3909C11.6892 25.5763 15.2356 27.9894 18.4868 29.1772C21.7048 30.353 25.128 30.4981 27.5511 28.075L29.1317 26.4951C29.4291 26.1978 29.6564 25.838 29.7974 25.4418C29.9383 25.0457 29.9892 24.6231 29.9464 24.2048C29.9037 23.7865 29.7683 23.383 29.5501 23.0236C29.3319 22.6641 29.0364 22.3578 28.6851 22.1268L28.6879 22.1233ZM23.6868 19.357L27.9821 23.0096C28.0018 23.0267 28.0228 23.0421 28.0451 23.0556C28.2601 23.1921 28.4417 23.3753 28.5763 23.5915C28.7109 23.8077 28.7952 24.0514 28.823 24.3046C28.8507 24.5578 28.8211 24.8139 28.7365 25.0542C28.6519 25.2944 28.5143 25.5125 28.334 25.6924L28.2164 25.8099L20.89 20.3246L21.6043 19.6047C21.8722 19.3341 22.2238 19.1621 22.6019 19.1166C22.98 19.0711 23.3623 19.1548 23.6868 19.3541V19.357ZM8.36715 2.92241C8.37281 2.9309 8.37847 2.94011 8.38484 2.9486L11.4888 7.26163C11.6942 7.58658 11.7826 7.97182 11.7395 8.35378C11.6964 8.73574 11.5243 9.09159 11.2517 9.36258L10.5587 10.0549L5.60364 2.76385L5.73671 2.63077C5.91663 2.45087 6.13464 2.31368 6.37468 2.22933C6.61471 2.14497 6.87062 2.11561 7.12352 2.1434C7.37642 2.17119 7.61985 2.25543 7.83583 2.38989C8.05182 2.52436 8.23484 2.70561 8.3714 2.92029L8.36715 2.92241ZM18.8783 28.1104C15.7785 26.9778 12.3786 24.661 9.30436 21.5867C6.30088 18.584 4.02651 15.2733 2.90029 12.2663C2.05085 10.0096 1.48456 6.87797 3.58621 4.77914L4.78393 3.58073L9.73899 10.8718L8.903 11.7077C8.67101 11.9386 8.5109 12.2318 8.44205 12.5518C8.37321 12.8717 8.39858 13.2048 8.51509 13.5107C8.69347 14.2447 9.51602 15.7667 10.3463 16.8886C11.5674 18.5401 13.7837 20.8222 17.4073 22.3222C17.7178 22.4507 18.0593 22.4842 18.3888 22.4185C18.7183 22.3529 19.0209 22.191 19.2584 21.9534L20.0788 21.133L27.4052 26.6183L26.754 27.2709C24.5044 29.5212 21.2319 28.9698 18.8783 28.1104Z" fill="black"/>
<path d="M13.1035 21.7547C12.5053 21.2301 11.4704 20.3283 10.9254 19.767C9.58961 18.3944 8.18803 16.7302 7.35417 15.5276C7.31246 15.465 7.25869 15.4113 7.196 15.3697C7.13331 15.3281 7.06296 15.2994 6.98906 15.2853C6.91516 15.2711 6.83919 15.2719 6.76558 15.2875C6.69198 15.3031 6.62221 15.3332 6.56037 15.376C6.49852 15.4188 6.44583 15.4736 6.40538 15.537C6.36493 15.6005 6.33752 15.6713 6.32476 15.7455C6.312 15.8196 6.31415 15.8956 6.33107 15.9689C6.34799 16.0422 6.37935 16.1114 6.42332 16.1724C7.4745 17.6887 9.01907 19.4322 10.1134 20.557C10.6889 21.1487 11.7323 22.0591 12.3567 22.6062C12.4705 22.6962 12.6145 22.7391 12.7589 22.726C12.9034 22.7129 13.0374 22.6449 13.1332 22.5359C13.2289 22.427 13.2793 22.2854 13.2737 22.1404C13.2682 21.9955 13.2073 21.8581 13.1035 21.7568V21.7547Z" fill="black"/>
<path d="M14.1659 23.1066C14.0867 23.1858 14.0327 23.2867 14.0108 23.3965C13.9889 23.5064 14.0001 23.6203 14.043 23.7238C14.0858 23.8273 14.1584 23.9157 14.2515 23.978C14.3447 24.0402 14.4542 24.0734 14.5662 24.0734C14.6782 24.0734 14.7877 24.0402 14.8809 23.978C14.974 23.9157 15.0466 23.8273 15.0894 23.7238C15.1323 23.6203 15.1435 23.5064 15.1216 23.3965C15.0997 23.2867 15.0457 23.1858 14.9665 23.1066C14.8603 23.0005 14.7163 22.9409 14.5662 22.9409C14.4161 22.9409 14.2721 23.0005 14.1659 23.1066Z" stroke="black" stroke-width="0.4" stroke-miterlimit="10"/>
<path d="M28.6879 22.1233L24.3883 18.4672C24.3684 18.4502 24.3473 18.4346 24.3253 18.4204C23.7828 18.0718 23.1371 17.9199 22.4961 17.9903C21.855 18.0606 21.2576 18.3489 20.8037 18.8069L18.4592 21.1514C18.38 21.2304 18.2792 21.2842 18.1695 21.306C18.0598 21.3278 17.946 21.3166 17.8427 21.2739C15.1952 20.1788 13.0207 18.5309 11.3791 16.3747C10.1276 14.731 9.67599 13.425 9.61724 13.241C9.60948 13.201 9.59786 13.1619 9.58256 13.1242C9.53987 13.0207 9.52879 12.907 9.55071 12.7972C9.57264 12.6875 9.62658 12.5867 9.70572 12.5076L12.0495 10.1632C12.5078 9.70926 12.7963 9.11168 12.8666 8.47047C12.937 7.82926 12.7849 7.18334 12.436 6.64083C12.4303 6.63234 12.4246 6.62314 12.4183 6.61464L9.31286 2.29665C9.08381 1.94157 8.7782 1.64225 8.41842 1.42064C8.05864 1.19903 7.65383 1.06076 7.23366 1.01596C6.81349 0.971159 6.38862 1.02097 5.9902 1.16173C5.59179 1.3025 5.22993 1.53065 4.93116 1.82946L2.78562 3.9743C0.786601 5.97686 0.459566 8.98033 1.83708 12.6676C3.01921 15.8226 5.38561 19.2763 8.50023 22.3909C11.6892 25.5763 15.2356 27.9894 18.4868 29.1772C21.7048 30.353 25.128 30.4981 27.5511 28.075L29.1317 26.4951C29.4291 26.1978 29.6564 25.838 29.7974 25.4418C29.9383 25.0457 29.9892 24.6231 29.9464 24.2048C29.9037 23.7865 29.7683 23.383 29.5501 23.0236C29.3319 22.6641 29.0364 22.3578 28.6851 22.1268L28.6879 22.1233ZM23.6868 19.357L27.9821 23.0096C28.0018 23.0267 28.0228 23.0421 28.0451 23.0556C28.2601 23.1921 28.4417 23.3753 28.5763 23.5915C28.7109 23.8077 28.7952 24.0514 28.823 24.3046C28.8507 24.5578 28.8211 24.8139 28.7365 25.0542C28.6519 25.2944 28.5143 25.5125 28.334 25.6924L28.2164 25.8099L20.89 20.3246L21.6043 19.6047C21.8722 19.3341 22.2238 19.1621 22.6019 19.1166C22.98 19.0711 23.3623 19.1548 23.6868 19.3541V19.357ZM8.36715 2.92241C8.37281 2.9309 8.37847 2.94011 8.38484 2.9486L11.4888 7.26163C11.6942 7.58658 11.7826 7.97182 11.7395 8.35378C11.6964 8.73574 11.5243 9.09159 11.2517 9.36258L10.5587 10.0549L5.60364 2.76385L5.73671 2.63077C5.91663 2.45087 6.13464 2.31368 6.37468 2.22933C6.61471 2.14497 6.87062 2.11561 7.12352 2.1434C7.37642 2.17119 7.61985 2.25543 7.83583 2.38989C8.05182 2.52436 8.23484 2.70561 8.3714 2.92029L8.36715 2.92241ZM18.8783 28.1104C15.7785 26.9778 12.3786 24.661 9.30436 21.5867C6.30088 18.584 4.02651 15.2733 2.90029 12.2663C2.05085 10.0096 1.48456 6.87797 3.58621 4.77914L4.78393 3.58073L9.73899 10.8718L8.903 11.7077C8.67101 11.9386 8.5109 12.2318 8.44205 12.5518C8.37321 12.8717 8.39858 13.2048 8.51509 13.5107C8.69347 14.2447 9.51602 15.7667 10.3463 16.8886C11.5674 18.5401 13.7837 20.8222 17.4073 22.3222C17.7178 22.4507 18.0593 22.4842 18.3888 22.4185C18.7183 22.3529 19.0209 22.191 19.2584 21.9534L20.0788 21.133L27.4052 26.6183L26.754 27.2709C24.5044 29.5212 21.2319 28.9698 18.8783 28.1104Z" stroke="black" stroke-width="0.4" stroke-miterlimit="10"/>
<path d="M13.1035 21.7547C12.5053 21.2301 11.4704 20.3283 10.9254 19.767C9.58961 18.3944 8.18803 16.7302 7.35417 15.5276C7.31246 15.465 7.25869 15.4113 7.196 15.3697C7.13331 15.3281 7.06296 15.2994 6.98906 15.2853C6.91516 15.2711 6.83919 15.2719 6.76558 15.2875C6.69198 15.3031 6.62221 15.3332 6.56037 15.376C6.49852 15.4188 6.44583 15.4736 6.40538 15.537C6.36493 15.6005 6.33752 15.6713 6.32476 15.7455C6.312 15.8196 6.31415 15.8956 6.33107 15.9689C6.34799 16.0422 6.37935 16.1114 6.42332 16.1724C7.4745 17.6887 9.01907 19.4322 10.1134 20.557C10.6889 21.1487 11.7323 22.0591 12.3567 22.6062C12.4705 22.6962 12.6145 22.7391 12.7589 22.726C12.9034 22.7129 13.0374 22.6449 13.1332 22.5359C13.2289 22.427 13.2793 22.2854 13.2737 22.1404C13.2682 21.9955 13.2073 21.8581 13.1035 21.7568V21.7547Z" stroke="black" stroke-width="0.4" stroke-miterlimit="10"/>
</svg>
