<svg width="64" height="64" viewBox="0 0 64 64" fill="none" xmlns="http://www.w3.org/2000/svg">
<g clip-path="url(#clip0)">
<path d="M40.532 53.0704C39.9875 52.6455 39.2021 52.7424 38.7775 53.2867L32.5917 61.2116C32.3958 61.4626 32.1371 61.5001 32.0005 61.5001C31.8636 61.5001 31.6051 61.4627 31.4093 61.2114L14.4833 39.5168C14.4673 39.4945 14.4505 39.4725 14.4331 39.451C11.1129 35.3773 9.30745 30.2338 9.34933 24.9679C9.38346 20.6451 10.6282 16.458 12.949 12.8592C13.3231 12.279 13.156 11.5053 12.576 11.1312C11.9955 10.7572 11.2221 10.9242 10.848 11.5043C8.27006 15.5019 6.88742 20.1507 6.84942 24.948C6.80317 30.7756 8.7947 36.4684 12.4586 40.9852C12.4647 40.9934 12.4709 41.0015 12.477 41.0095L29.4381 62.7493C30.0582 63.5442 30.9921 64.0001 32.0003 64.0002C32.0004 64.0002 32.0004 64.0002 32.0005 64.0002C33.0084 64.0002 33.9423 63.5444 34.5624 62.7499L40.7483 54.8249C41.173 54.2807 41.0761 53.4952 40.532 53.0704Z" fill="black"/>
<path d="M32 0C27.116 0 22.3852 1.39064 18.3192 4.02143C17.7395 4.39643 17.5737 5.17032 17.9488 5.74995C18.3238 6.32946 19.0977 6.49546 19.6773 6.12046C23.3379 3.75193 27.599 2.50003 32 2.50003C44.4899 2.50003 54.6513 12.6615 54.6513 25.1515C54.6513 30.4055 52.8118 35.5256 49.4715 39.5687C49.4285 39.6207 49.3902 39.6754 49.3567 39.7325L44.9305 45.4031C44.5058 45.9474 44.6025 46.7329 45.1467 47.1576C45.375 47.3359 45.646 47.4224 45.9149 47.4224C46.2868 47.4224 46.6547 47.2573 46.9012 46.9414L51.4342 41.1341C51.4619 41.0987 51.4874 41.062 51.5107 41.0246C55.1492 36.5561 57.1512 30.9263 57.1512 25.1516C57.1513 11.283 45.8684 0 32 0Z" fill="black"/>
<path d="M16.9968 33.9053C17.6955 34.6038 18.6242 34.9885 19.6121 34.9885C20.6 34.9885 21.5288 34.6038 22.2274 33.9053L27.3236 28.8092L31.5654 33.051C31.8095 33.295 32.1294 33.4171 32.4493 33.4171C32.7692 33.4171 33.0891 33.295 33.3332 33.051L47.7855 18.5986C48.2736 18.1104 48.2736 17.3189 47.7855 16.8308L42.1549 11.2001C40.0365 9.08181 36.5899 9.08168 34.4715 11.2001L22.9775 22.6941C22.9773 22.6944 16.9968 28.6747 16.9968 28.6747C16.2983 29.3732 15.9136 30.3021 15.9136 31.29C15.9136 32.2779 16.2983 33.2068 16.9968 33.9053ZM36.2394 12.968C37.3827 11.8243 39.2436 11.8246 40.3872 12.968L45.1338 17.7148L32.4493 30.3992L28.2077 26.1577C28.2077 26.1575 28.2076 26.1575 28.2075 26.1574L25.6287 23.5786L36.2394 12.968ZM18.7647 30.4426L23.8608 25.3465L25.5557 27.0414L20.4595 32.1375C20.2331 32.3639 19.9321 32.4885 19.6121 32.4885C19.2921 32.4885 18.991 32.3639 18.7647 32.1375C18.5382 31.9111 18.4136 31.6102 18.4136 31.2901C18.4136 30.97 18.5382 30.6689 18.7647 30.4426Z" fill="black"/>
<path d="M42.8486 48.8711C42.5199 48.8711 42.1974 49.0048 41.9649 49.2373C41.7324 49.4698 41.5986 49.7911 41.5986 50.1211C41.5986 50.4498 41.7323 50.7723 41.9649 51.0048C42.1974 51.2373 42.5199 51.3711 42.8486 51.3711C43.1774 51.3711 43.4999 51.2373 43.7323 51.0048C43.9648 50.7723 44.0986 50.4498 44.0986 50.1211C44.0986 49.7923 43.9649 49.4698 43.7323 49.2373C43.4999 49.005 43.1774 48.8711 42.8486 48.8711Z" fill="black"/>
<path d="M15.0806 9.47461C15.4094 9.47461 15.7318 9.34086 15.9643 9.10836C16.1968 8.87586 16.3306 8.55336 16.3306 8.22461C16.3306 7.89586 16.1969 7.57336 15.9643 7.34086C15.7318 7.10836 15.4094 6.97461 15.0806 6.97461C14.7518 6.97461 14.4293 7.10836 14.1969 7.34086C13.9644 7.57336 13.8306 7.89586 13.8306 8.22461C13.8306 8.55336 13.9643 8.87586 14.1969 9.10836C14.4293 9.34098 14.7518 9.47461 15.0806 9.47461Z" fill="black"/>
</g>
<defs>
<clipPath id="clip0">
<rect width="64" height="64" fill="white"/>
</clipPath>
</defs>
</svg>
