<svg width="54" height="54" viewBox="0 0 54 54" fill="none" xmlns="http://www.w3.org/2000/svg">
<path d="M30.375 11.9827C31.6221 11.7026 32.8539 11.3331 34.0478 10.8833L33.4522 9.30469C32.1292 9.80334 30.7547 10.1965 29.3676 10.4716L28.6875 10.6057V13.5091L30.375 13.4897V11.9827Z" fill="black"/>
<path d="M30.4863 15.0762L28.814 15.2989C28.8941 15.9014 29.0139 16.5055 29.1709 17.0927L30.8018 16.6574C30.6626 16.1393 30.5563 15.6077 30.4863 15.0762Z" fill="black"/>
<path d="M35.0646 29.1269L35.4383 29.3125L35.813 29.1269C41.8264 26.1518 45.5625 20.1249 45.5625 13.3952V7.58513L44.7854 7.52353C41.6306 7.27378 38.6201 6.38447 35.8383 4.88091L35.4375 4.66406L35.0359 4.88091C32.2549 6.38447 29.2444 7.27378 26.0896 7.52353L25.3125 7.58513V13.3952C25.3125 20.119 29.0495 26.1459 35.0646 29.1269ZM27 9.13172C29.9582 8.8035 32.7907 7.94625 35.4375 6.57769C38.0843 7.94625 40.9168 8.80434 43.875 9.13172V13.3952C43.875 19.3369 40.6536 24.6728 35.4392 27.4225C30.2223 24.6685 27 19.3318 27 13.3952V9.13172Z" fill="black"/>
<path d="M41.9406 14.9411L40.7476 13.748L33.7503 20.7453L31.8156 18.8105L30.6226 20.0036L33.7503 23.1314L41.9406 14.9411Z" fill="black"/>
<path d="M50.625 29.5318H41.353C46.0882 25.632 48.9375 19.7856 48.9375 13.395V4.21927H46.5843C42.7705 4.21927 39.0783 3.1013 35.9058 0.986016L35.4375 0.673828L34.9692 0.986016C31.7976 3.1013 28.1045 4.21927 24.2907 4.21927H21.9375V13.395C21.9375 13.7266 21.9628 14.0591 21.978 14.3907C20.5597 13.3081 18.7937 12.6568 16.875 12.6568C13.8316 12.6568 11.0978 14.2683 9.58922 16.8755H5.0625C3.66694 16.8755 2.53125 18.0112 2.53125 19.4068C2.53125 20.8023 3.66694 21.938 5.0625 21.938H8.48053C8.74547 24.5925 10.2499 26.8815 12.4006 28.2341C5.74594 29.5529 0.84375 35.4186 0.84375 42.2926V44.7193C0.84375 46.5806 2.35744 48.0943 4.21875 48.0943H5.90625V53.1568H26.1959H27.8438H50.625C52.0206 53.1568 53.1562 52.0211 53.1562 50.6255V32.063C53.1562 30.6675 52.0206 29.5318 50.625 29.5318ZM43.0312 31.2193V34.5943H34.5938V32.6047C34.7709 32.6815 34.9388 32.7726 35.1194 32.8452L35.4586 32.9633L35.775 32.8376C36.9031 32.3862 37.9679 31.8377 38.977 31.2201H43.0312V31.2193ZM23.625 5.90677H24.2907C28.2521 5.90677 32.0946 4.79808 35.4375 2.69292C38.7804 4.79808 42.6229 5.90677 46.5843 5.90677H47.25V13.395C47.25 21.1997 42.6355 28.1269 35.4375 31.1509C30.8981 29.2516 27.3156 25.745 25.3049 21.2445C25.3057 21.1938 25.3125 21.1449 25.3125 21.0943C25.3125 19.3452 24.7767 17.7193 23.8621 16.3701C23.7085 15.3888 23.625 14.3898 23.625 13.395V5.90677ZM21.3503 28.2341C22.934 27.2376 24.1608 25.7332 24.8054 23.9478C26.0525 26.091 27.6531 27.9734 29.5431 29.5318H25.0872C23.9271 28.9369 22.6733 28.4965 21.3503 28.2341ZM14.3438 29.644L15.2398 29.5318H18.5093L19.4062 29.644V30.3755C19.4062 31.7711 18.2706 32.9068 16.875 32.9068C15.4794 32.9068 14.3438 31.7711 14.3438 30.3755V29.644ZM16.875 14.3443C20.3108 14.3443 23.1491 16.9261 23.5668 20.2505H16.5535L16.0312 19.2076C15.3115 17.769 13.8662 16.8755 12.258 16.8755H11.6218C12.8866 15.2943 14.7884 14.3443 16.875 14.3443ZM4.21875 19.4068C4.21875 18.941 4.59759 18.563 5.0625 18.563H12.258C13.2233 18.563 14.0906 19.0996 14.5218 19.962L14.6661 20.2505H5.0625C4.59759 20.2505 4.21875 19.8725 4.21875 19.4068ZM10.1832 21.938H23.5659C23.1483 25.2624 20.3099 27.8443 16.8742 27.8443C13.4384 27.8443 10.6009 25.2624 10.1832 21.938ZM2.53125 44.7193V42.2926C2.53125 36.2514 6.82172 31.091 12.6562 29.9005V30.3755C12.6562 32.7017 14.5488 34.5943 16.875 34.5943C19.2012 34.5943 21.0938 32.7017 21.0938 30.3755L21.0912 29.8996C26.9266 31.0893 31.2188 36.2505 31.2188 42.2926V44.7193C31.2188 45.6499 30.4619 46.4068 29.5312 46.4068H21.9375C21.0068 46.4068 20.25 45.6499 20.25 44.7193C20.25 43.7886 21.0068 43.0318 21.9375 43.0318H27.8438V36.2818H5.90625V43.0318H11.8125C12.7432 43.0318 13.5 43.7886 13.5 44.7193C13.5 45.6499 12.7432 46.4068 11.8125 46.4068H4.21875C3.28809 46.4068 2.53125 45.6499 2.53125 44.7193ZM14.3438 37.9693H19.4062V39.6568H14.3438V37.9693ZM7.59375 51.4693V48.0943H11.8125C13.6738 48.0943 15.1875 46.5806 15.1875 44.7193C15.1875 42.858 13.6738 41.3443 11.8125 41.3443H7.59375V37.9693H12.6562V41.3443H21.0938V37.9693H26.1562V41.3443H21.9375C20.0762 41.3443 18.5625 42.858 18.5625 44.7193C18.5625 46.5806 20.0762 48.0943 21.9375 48.0943H26.1562V51.4693H7.59375ZM51.4688 50.6255C51.4688 51.0913 51.0899 51.4693 50.625 51.4693H27.8438V48.0943H29.5312C31.3926 48.0943 32.9062 46.5806 32.9062 44.7193V42.2926C32.9062 37.8705 30.8728 33.8678 27.6556 31.2193H31.9174C32.2414 31.4175 32.5696 31.6108 32.9062 31.793V36.2818H44.7188V31.2193H50.625C51.0899 31.2193 51.4688 31.5973 51.4688 32.063V50.6255Z" fill="black"/>
<path d="M44.7188 48.0938H46.4062V49.7812H44.7188V48.0938Z" fill="black"/>
<path d="M48.0938 48.0938H49.7812V49.7812H48.0938V48.0938Z" fill="black"/>
<path d="M41.3438 48.0938H43.0312V49.7812H41.3438V48.0938Z" fill="black"/>
<path d="M41.3438 44.7188H49.7812V46.4062H41.3438V44.7188Z" fill="black"/>
</svg>
