<svg width="32" height="32" viewBox="0 0 32 32" fill="none" xmlns="http://www.w3.org/2000/svg">
<g clip-path="url(#clip0)">
<path d="M9.25023 23.7074C7.85217 23.636 7.8785 21.6696 9.25016 21.6013C13.1357 21.6148 23.384 21.6049 27.3931 21.6078C28.4896 21.6078 29.4277 20.8616 29.6743 19.7932L31.9508 9.93543C32.0812 9.371 31.9496 8.78682 31.5899 8.33276C31.2302 7.87871 30.6917 7.61463 30.1125 7.61463C28.4997 7.61463 14.8096 7.55266 7.79758 7.52471L6.68605 3.40045C6.41922 2.41487 5.51981 1.72656 4.49876 1.72656H0.937998C0.419973 1.72656 0 2.14654 0 2.66456C0 3.18259 0.419973 3.60256 0.937998 3.60256H4.49876C4.67455 3.60256 4.82932 3.72106 4.87503 3.88971L9.14386 19.7279C8.39327 19.7551 7.69415 20.0604 7.16399 20.5983C6.60695 21.1636 6.30779 21.9119 6.32161 22.7054C6.34925 24.2923 7.66301 25.5834 9.25023 25.5834H10.618C10.4147 26.0101 10.3005 26.4872 10.3005 26.9904C10.3005 28.8008 11.7733 30.2736 13.5837 30.2736C15.394 30.2736 16.8668 28.8008 16.8668 26.9904C16.8668 26.4871 16.7526 26.0101 16.5493 25.5834H22.4722C22.2691 26.01 22.155 26.4868 22.155 26.9899C22.155 28.8003 23.6278 30.2731 25.4381 30.2731C27.2484 30.2731 28.7213 28.8002 28.7213 26.9899C28.7213 26.4672 28.5978 25.973 28.3796 25.5338C28.7508 25.4088 29.0184 25.0587 29.0184 24.6454C29.0184 24.1274 28.5984 23.7074 28.0804 23.7074H9.25023ZM14.9907 26.9905C14.9907 27.7664 14.3595 28.3976 13.5836 28.3976C12.8077 28.3976 12.1765 27.7664 12.1765 26.9905C12.1765 26.215 12.8071 25.5841 13.5824 25.5834H13.5848C14.3601 25.5841 14.9907 26.215 14.9907 26.9905ZM25.4381 28.3971C24.6623 28.3971 24.031 27.7659 24.031 26.99C24.031 26.2218 24.65 25.5958 25.4153 25.5834H25.461C26.2264 25.5958 26.8454 26.2218 26.8454 26.99C26.8453 27.7659 26.2141 28.3971 25.4381 28.3971ZM30.1194 9.49751C30.1249 9.50451 30.1241 9.50783 30.1229 9.5132L29.1637 13.667H25.9156L26.4688 9.47581L30.105 9.49044C30.1106 9.49057 30.1139 9.49057 30.1194 9.49751ZM20.4489 19.7317V15.543H23.7758L23.223 19.7317H20.4489ZM15.7976 19.7317L15.2403 15.543H18.5729V19.7317H15.7976ZM11.4795 19.7317H11.4765C11.2479 19.7316 11.0465 19.5774 10.987 19.3578L9.95885 15.543H13.3477L13.905 19.7317H11.4795ZM14.9907 13.667L14.4265 9.42735L18.5729 9.44404V13.667H14.9907ZM20.4489 13.667V9.45161L24.5775 9.46824L24.0234 13.667H20.4489ZM12.533 9.41965L13.0981 13.667H9.45321L8.30385 9.40258L12.533 9.41965ZM27.3931 19.7317H25.1152L25.668 15.543H28.7305L27.8464 19.3711C27.7974 19.5834 27.611 19.7317 27.3931 19.7317Z" fill="black"/>
</g>
<defs>
<clipPath id="clip0">
<rect width="32" height="32" fill="white"/>
</clipPath>
</defs>
</svg>
