<svg width="21" height="12" viewBox="0 0 21 12" fill="none" xmlns="http://www.w3.org/2000/svg">
<path d="M20.8928 10.31C20.8726 10.2663 20.8499 10.2238 20.8248 10.1827C20.2752 9.33388 19.6049 8.57272 18.8358 7.92409L18.8148 7.90373L18.8048 7.89457L18.7948 7.88439H18.7848C18.4903 7.61931 18.2089 7.33939 17.9419 7.04567C17.8407 6.93736 17.773 6.80125 17.747 6.65418C17.7211 6.5071 17.7381 6.35551 17.7959 6.21815C18.0604 5.73928 18.3746 5.29057 18.7328 4.87966C19.0175 4.51866 19.2432 4.22891 19.4098 4.01041C20.6098 2.4429 21.1305 1.44133 20.9718 1.00568L20.9098 0.903897C20.8213 0.815869 20.7087 0.756997 20.5868 0.734932C20.3684 0.681509 20.1416 0.672858 19.9198 0.709485L16.9199 0.729843C16.8517 0.711173 16.78 0.711173 16.7119 0.729843L16.5769 0.760379L16.5249 0.785826L16.4829 0.816361C16.4388 0.84549 16.4 0.881966 16.3679 0.924255C16.326 0.978607 16.2923 1.03898 16.2679 1.1034C15.956 1.89822 15.5835 2.66701 15.1539 3.40275C14.8972 3.8255 14.6612 4.19193 14.4459 4.50204C14.2844 4.74514 14.1034 4.97426 13.9049 5.18706C13.7798 5.31385 13.6462 5.43154 13.5049 5.53924C13.3869 5.62745 13.2965 5.66511 13.2339 5.65222L13.0569 5.61151C12.9593 5.54956 12.8788 5.4634 12.8229 5.36111C12.7581 5.23718 12.7174 5.10171 12.7029 4.96211C12.6819 4.80129 12.6699 4.66388 12.6659 4.54784C12.6619 4.4318 12.6659 4.26895 12.6709 4.05723C12.6759 3.84552 12.6809 3.70302 12.6809 3.62769C12.6809 3.36848 12.6859 3.08721 12.6959 2.78389C12.7059 2.48056 12.7145 2.24035 12.7219 2.06324C12.7285 1.88613 12.7319 1.69851 12.7319 1.50036C12.7354 1.34447 12.7234 1.18861 12.6959 1.0352C12.6715 0.922522 12.635 0.81294 12.5869 0.708468C12.5418 0.606717 12.4675 0.52121 12.3739 0.463163C12.2652 0.39917 12.1475 0.352487 12.0249 0.324734C11.5625 0.235162 11.0926 0.192203 10.6219 0.196483C9.78482 0.127082 8.94231 0.210151 8.1339 0.441788C7.98364 0.518319 7.84815 0.621754 7.7339 0.747147C7.60923 0.897112 7.5919 0.978879 7.6819 0.992451C8.02224 1.01398 8.34039 1.17169 8.56689 1.43115L8.62989 1.55431C8.69845 1.70393 8.74753 1.86201 8.77589 2.02456C8.82727 2.27022 8.85871 2.51975 8.86989 2.77065C8.90483 3.19572 8.90483 3.62301 8.86989 4.04807C8.83523 4.40297 8.80189 4.67881 8.76989 4.87559C8.7478 5.04224 8.70022 5.20434 8.62889 5.35602C8.59216 5.43374 8.5504 5.50888 8.50389 5.58097C8.49024 5.60145 8.47253 5.61878 8.45189 5.63186C8.36198 5.66584 8.2668 5.68307 8.1709 5.68276C8.04176 5.67068 7.91882 5.62084 7.8169 5.53924C7.65818 5.42568 7.51318 5.29346 7.3849 5.14533C7.19791 4.92681 7.029 4.69292 6.8799 4.44605C6.66813 4.1017 6.47355 3.74669 6.2969 3.38239L6.12991 3.08619C6.02591 2.89483 5.88357 2.61696 5.70291 2.25256C5.52224 1.88817 5.36258 1.53565 5.22391 1.19501C5.17628 1.06184 5.08885 0.947222 4.97391 0.867255L4.92191 0.836718C4.87014 0.800666 4.81401 0.771586 4.75491 0.7502C4.6775 0.719382 4.59703 0.697199 4.51491 0.684039L1.66192 0.704396C1.55514 0.690971 1.44676 0.701411 1.34435 0.734988C1.24193 0.768564 1.14794 0.824469 1.06893 0.898807L1.02693 0.95988C1.00265 1.01043 0.991952 1.06662 0.995928 1.12274C1.00043 1.2178 1.02177 1.31124 1.05893 1.39858C1.47559 2.36012 1.92859 3.28671 2.41792 4.17836C2.90725 5.07 3.33458 5.78997 3.69992 6.33826C4.06125 6.88112 4.42791 7.39548 4.79991 7.88134C5.17191 8.3672 5.41991 8.67731 5.54391 8.81166C5.66591 8.94806 5.76091 9.04984 5.82991 9.11702L6.08991 9.36233C6.31947 9.57689 6.56486 9.77324 6.8239 9.94963C7.14657 10.1783 7.50423 10.4033 7.8969 10.6245C8.32961 10.8616 8.78942 11.0435 9.26589 11.166C9.76075 11.3029 10.2737 11.3599 10.7859 11.3349H11.9859C12.1906 11.3304 12.3867 11.2505 12.5379 11.11L12.5789 11.0591C12.6142 11.0008 12.6405 10.9373 12.6569 10.8708C12.6817 10.7793 12.6938 10.6848 12.6929 10.5899C12.6836 10.3241 12.7065 10.0581 12.7609 9.79797C12.7953 9.61335 12.8549 9.43452 12.9379 9.26665C12.9975 9.15428 13.073 9.05141 13.1619 8.96129C13.2144 8.90427 13.2739 8.85433 13.3389 8.81268C13.3658 8.79903 13.3935 8.78713 13.4219 8.77706C13.5253 8.75508 13.6323 8.75799 13.7343 8.78556C13.8364 8.81312 13.9308 8.86459 14.0099 8.93584C14.2454 9.10506 14.4588 9.30412 14.6449 9.52824C14.8449 9.76302 15.0825 10.027 15.3579 10.3201C15.5786 10.5624 15.8229 10.7813 16.0869 10.9736L16.2949 11.0968C16.4666 11.1924 16.6484 11.2679 16.8369 11.3217C17.0241 11.3872 17.2243 11.405 17.4199 11.3736L20.0848 11.3329C20.2969 11.344 20.5082 11.2999 20.6988 11.2047C20.8181 11.1489 20.9113 11.0482 20.9588 10.9237C20.9869 10.8096 20.9886 10.6905 20.9638 10.5756C20.9499 10.4847 20.9261 10.3956 20.8928 10.31Z" fill="black"/>
</svg>
